<svg width="158" height="48" viewBox="0 0 158 48" fill="none" xmlns="http://www.w3.org/2000/svg">
<path d="M0.506 44.2861V43.4281L4.257 37.5211H0.55V36.5861H5.533V37.4441L1.771 43.3511H5.566V44.2861H0.506ZM6.50934 44.2861V38.7421H7.60934V44.2861H6.50934ZM7.07034 37.6971C6.85767 37.6971 6.68167 37.6311 6.54234 37.4991C6.41034 37.3671 6.34434 37.1985 6.34434 36.9931C6.34434 36.7951 6.41034 36.6338 6.54234 36.5091C6.68167 36.3771 6.85767 36.3111 7.07034 36.3111C7.27567 36.3111 7.448 36.3771 7.58734 36.5091C7.72667 36.6338 7.79634 36.7951 7.79634 36.9931C7.79634 37.1985 7.72667 37.3671 7.58734 37.4991C7.448 37.6311 7.27567 37.6971 7.07034 37.6971ZM9.43534 46.7061L10.7883 43.6701H10.4693L8.28034 38.7421H9.46834L11.2063 42.7681L12.9553 38.7421H14.1103L10.5903 46.7061H9.43534ZM16.1575 44.4181C15.7029 44.4181 15.3252 44.3411 15.0245 44.1871C14.7239 44.0331 14.5002 43.8278 14.3535 43.5711C14.2069 43.3071 14.1335 43.0248 14.1335 42.7241C14.1335 42.3575 14.2289 42.0458 14.4195 41.7891C14.6102 41.5251 14.8815 41.3235 15.2335 41.1841C15.5855 41.0448 16.0072 40.9751 16.4985 40.9751H17.9395C17.9395 40.6525 17.8919 40.3848 17.7965 40.1721C17.7012 39.9595 17.5582 39.8018 17.3675 39.6991C17.1842 39.5891 16.9495 39.5341 16.6635 39.5341C16.3335 39.5341 16.0512 39.6148 15.8165 39.7761C15.5819 39.9301 15.4352 40.1611 15.3765 40.4691H14.2765C14.3205 40.0805 14.4525 39.7505 14.6725 39.4791C14.8999 39.2005 15.1895 38.9878 15.5415 38.8411C15.8935 38.6871 16.2675 38.6101 16.6635 38.6101C17.1842 38.6101 17.6205 38.7018 17.9725 38.8851C18.3245 39.0685 18.5885 39.3288 18.7645 39.6661C18.9479 39.9961 19.0395 40.3921 19.0395 40.8541V44.2861H18.0825L17.9945 43.3511C17.9139 43.4978 17.8185 43.6371 17.7085 43.7691C17.5985 43.9011 17.4665 44.0148 17.3125 44.1101C17.1659 44.2055 16.9935 44.2788 16.7955 44.3301C16.6049 44.3888 16.3922 44.4181 16.1575 44.4181ZM16.3665 43.5271C16.6012 43.5271 16.8139 43.4795 17.0045 43.3841C17.1952 43.2888 17.3565 43.1605 17.4885 42.9991C17.6279 42.8305 17.7305 42.6435 17.7965 42.4381C17.8699 42.2255 17.9102 42.0091 17.9175 41.7891V41.7561H16.6085C16.2932 41.7561 16.0365 41.7965 15.8385 41.8771C15.6479 41.9505 15.5085 42.0531 15.4205 42.1851C15.3325 42.3171 15.2885 42.4711 15.2885 42.6471C15.2885 42.8305 15.3289 42.9881 15.4095 43.1201C15.4975 43.2448 15.6222 43.3438 15.7835 43.4171C15.9449 43.4905 16.1392 43.5271 16.3665 43.5271ZM20.0586 44.2861V38.7421H21.0486L21.1476 39.7871C21.2723 39.5378 21.4336 39.3288 21.6316 39.1601C21.8296 38.9841 22.0606 38.8485 22.3246 38.7531C22.5959 38.6578 22.9039 38.6101 23.2486 38.6101V39.7761H22.8526C22.6253 39.7761 22.4089 39.8055 22.2036 39.8641C21.9983 39.9155 21.8149 40.0071 21.6536 40.1391C21.4996 40.2711 21.3786 40.4508 21.2906 40.6781C21.2026 40.9055 21.1586 41.1878 21.1586 41.5251V44.2861H20.0586ZM26.2206 44.4181C25.6926 44.4181 25.2233 44.2971 24.8126 44.0551C24.402 43.8131 24.0793 43.4758 23.8446 43.0431C23.6173 42.6105 23.5036 42.1081 23.5036 41.5361C23.5036 40.9495 23.6173 40.4398 23.8446 40.0071C24.0793 39.5671 24.402 39.2261 24.8126 38.9841C25.2233 38.7348 25.7 38.6101 26.2426 38.6101C26.7853 38.6101 27.251 38.7311 27.6396 38.9731C28.0283 39.2151 28.329 39.5378 28.5416 39.9411C28.7543 40.3371 28.8606 40.7771 28.8606 41.2611C28.8606 41.3345 28.857 41.4151 28.8496 41.5031C28.8496 41.5838 28.846 41.6755 28.8386 41.7781H24.3066V40.9971H27.7606C27.7386 40.5351 27.5846 40.1758 27.2986 39.9191C27.0126 39.6551 26.657 39.5231 26.2316 39.5231C25.931 39.5231 25.656 39.5928 25.4066 39.7321C25.1573 39.8641 24.9556 40.0621 24.8016 40.3261C24.655 40.5828 24.5816 40.9091 24.5816 41.3051V41.6131C24.5816 42.0238 24.655 42.3721 24.8016 42.6581C24.9556 42.9368 25.1573 43.1495 25.4066 43.2961C25.656 43.4355 25.9273 43.5051 26.2206 43.5051C26.5726 43.5051 26.8623 43.4281 27.0896 43.2741C27.317 43.1201 27.4856 42.9111 27.5956 42.6471H28.6956C28.6003 42.9845 28.439 43.2888 28.2116 43.5601C27.9843 43.8241 27.702 44.0331 27.3646 44.1871C27.0346 44.3411 26.6533 44.4181 26.2206 44.4181ZM31.8354 44.2861C31.4834 44.2861 31.179 44.2311 30.9224 44.1211C30.6657 44.0111 30.4677 43.8278 30.3284 43.5711C30.189 43.3145 30.1194 42.9661 30.1194 42.5261V39.6771H29.1624V38.7421H30.1194L30.2514 37.3561H31.2194V38.7421H32.7924V39.6771H31.2194V42.5371C31.2194 42.8525 31.2854 43.0688 31.4174 43.1861C31.5494 43.2961 31.7767 43.3511 32.0994 43.3511H32.7374V44.2861H31.8354ZM37.6228 44.2861L35.5438 38.7421H36.6988L38.2718 43.2301L39.8558 38.7421H40.9888L38.9208 44.2861H37.6228ZM43.834 44.4181C43.306 44.4181 42.8366 44.2971 42.426 44.0551C42.0153 43.8131 41.6926 43.4758 41.458 43.0431C41.2306 42.6105 41.117 42.1081 41.117 41.5361C41.117 40.9495 41.2306 40.4398 41.458 40.0071C41.6926 39.5671 42.0153 39.2261 42.426 38.9841C42.8366 38.7348 43.3133 38.6101 43.856 38.6101C44.3986 38.6101 44.8643 38.7311 45.253 38.9731C45.6416 39.2151 45.9423 39.5378 46.155 39.9411C46.3676 40.3371 46.474 40.7771 46.474 41.2611C46.474 41.3345 46.4703 41.4151 46.463 41.5031C46.463 41.5838 46.4593 41.6755 46.452 41.7781H41.92V40.9971H45.374C45.352 40.5351 45.198 40.1758 44.912 39.9191C44.626 39.6551 44.2703 39.5231 43.845 39.5231C43.5443 39.5231 43.2693 39.5928 43.02 39.7321C42.7706 39.8641 42.569 40.0621 42.415 40.3261C42.2683 40.5828 42.195 40.9091 42.195 41.3051V41.6131C42.195 42.0238 42.2683 42.3721 42.415 42.6581C42.569 42.9368 42.7706 43.1495 43.02 43.2961C43.2693 43.4355 43.5406 43.5051 43.834 43.5051C44.186 43.5051 44.4756 43.4281 44.703 43.2741C44.9303 43.1201 45.099 42.9111 45.209 42.6471H46.309C46.2136 42.9845 46.0523 43.2888 45.825 43.5601C45.5976 43.8241 45.3153 44.0331 44.978 44.1871C44.648 44.3411 44.2666 44.4181 43.834 44.4181ZM49.7955 44.2861V36.5861H52.4025C53.0112 36.5861 53.5099 36.6888 53.8985 36.8941C54.2872 37.0995 54.5732 37.3745 54.7565 37.7191C54.9472 38.0565 55.0425 38.4415 55.0425 38.8741C55.0425 39.2848 54.9472 39.6661 54.7565 40.0181C54.5732 40.3628 54.2835 40.6415 53.8875 40.8541C53.4915 41.0595 52.9855 41.1621 52.3695 41.1621H50.8955V44.2861H49.7955ZM53.8435 44.2861L52.1825 40.8651H53.3925L55.1195 44.2861H53.8435ZM50.8955 40.3261H52.3255C52.8682 40.3261 53.2679 40.1941 53.5245 39.9301C53.7812 39.6588 53.9095 39.3141 53.9095 38.8961C53.9095 38.4708 53.7849 38.1335 53.5355 37.8841C53.2862 37.6348 52.8829 37.5101 52.3255 37.5101H50.8955V40.3261ZM57.6916 44.4181C57.2369 44.4181 56.8592 44.3411 56.5586 44.1871C56.2579 44.0331 56.0342 43.8278 55.8876 43.5711C55.7409 43.3071 55.6676 43.0248 55.6676 42.7241C55.6676 42.3575 55.7629 42.0458 55.9536 41.7891C56.1442 41.5251 56.4156 41.3235 56.7676 41.1841C57.1196 41.0448 57.5412 40.9751 58.0326 40.9751H59.4736C59.4736 40.6525 59.4259 40.3848 59.3306 40.1721C59.2352 39.9595 59.0922 39.8018 58.9016 39.6991C58.7182 39.5891 58.4836 39.5341 58.1976 39.5341C57.8676 39.5341 57.5852 39.6148 57.3506 39.7761C57.1159 39.9301 56.9692 40.1611 56.9106 40.4691H55.8106C55.8546 40.0805 55.9866 39.7505 56.2066 39.4791C56.4339 39.2005 56.7236 38.9878 57.0756 38.8411C57.4276 38.6871 57.8016 38.6101 58.1976 38.6101C58.7182 38.6101 59.1546 38.7018 59.5066 38.8851C59.8586 39.0685 60.1226 39.3288 60.2986 39.6661C60.4819 39.9961 60.5736 40.3921 60.5736 40.8541V44.2861H59.6166L59.5286 43.3511C59.4479 43.4978 59.3526 43.6371 59.2426 43.7691C59.1326 43.9011 59.0006 44.0148 58.8466 44.1101C58.6999 44.2055 58.5276 44.2788 58.3296 44.3301C58.1389 44.3888 57.9262 44.4181 57.6916 44.4181ZM57.9006 43.5271C58.1352 43.5271 58.3479 43.4795 58.5386 43.3841C58.7292 43.2888 58.8906 43.1605 59.0226 42.9991C59.1619 42.8305 59.2646 42.6435 59.3306 42.4381C59.4039 42.2255 59.4442 42.0091 59.4516 41.7891V41.7561H58.1426C57.8272 41.7561 57.5706 41.7965 57.3726 41.8771C57.1819 41.9505 57.0426 42.0531 56.9546 42.1851C56.8666 42.3171 56.8226 42.4711 56.8226 42.6471C56.8226 42.8305 56.8629 42.9881 56.9436 43.1201C57.0316 43.2448 57.1562 43.3438 57.3176 43.4171C57.4789 43.4905 57.6732 43.5271 57.9006 43.5271ZM61.5926 44.2861V38.7421H62.5826L62.6486 39.6881C62.8246 39.3581 63.0739 39.0978 63.3966 38.9071C63.7193 38.7091 64.0896 38.6101 64.5076 38.6101C64.9476 38.6101 65.3253 38.6981 65.6406 38.8741C65.9559 39.0501 66.2016 39.3178 66.3776 39.6771C66.5536 40.0291 66.6416 40.4728 66.6416 41.0081V44.2861H65.5416V41.1181C65.5416 40.6048 65.4279 40.2161 65.2006 39.9521C64.9733 39.6881 64.6433 39.5561 64.2106 39.5561C63.9246 39.5561 63.6679 39.6258 63.4406 39.7651C63.2133 39.8971 63.0299 40.0951 62.8906 40.3591C62.7586 40.6231 62.6926 40.9458 62.6926 41.3271V44.2861H61.5926ZM70.1277 44.4181C69.5997 44.4181 69.134 44.2935 68.7307 44.0441C68.3273 43.7875 68.012 43.4428 67.7847 43.0101C67.5647 42.5701 67.4547 42.0715 67.4547 41.5141C67.4547 40.9495 67.5647 40.4508 67.7847 40.0181C68.012 39.5855 68.3273 39.2445 68.7307 38.9951C69.1413 38.7385 69.6107 38.6101 70.1387 38.6101C70.5713 38.6101 70.9527 38.6981 71.2827 38.8741C71.6127 39.0428 71.8693 39.2848 72.0527 39.6001V36.3661H73.1527V44.2861H72.1627L72.0527 43.4281C71.9427 43.5968 71.7997 43.7581 71.6237 43.9121C71.4477 44.0588 71.235 44.1798 70.9857 44.2751C70.7363 44.3705 70.4503 44.4181 70.1277 44.4181ZM70.3037 43.4611C70.6483 43.4611 70.9527 43.3805 71.2167 43.2191C71.4807 43.0578 71.6823 42.8305 71.8217 42.5371C71.9683 42.2438 72.0417 41.9028 72.0417 41.5141C72.0417 41.1255 71.9683 40.7881 71.8217 40.5021C71.6823 40.2088 71.4807 39.9815 71.2167 39.8201C70.9527 39.6515 70.6483 39.5671 70.3037 39.5671C69.9737 39.5671 69.6767 39.6515 69.4127 39.8201C69.1487 39.9815 68.9433 40.2088 68.7967 40.5021C68.65 40.7881 68.5767 41.1255 68.5767 41.5141C68.5767 41.9028 68.65 42.2438 68.7967 42.5371C68.9433 42.8305 69.1487 43.0578 69.4127 43.2191C69.6767 43.3805 69.9737 43.4611 70.3037 43.4611ZM76.7798 44.4181C76.2518 44.4181 75.7825 44.2971 75.3718 44.0551C74.9612 43.8131 74.6385 43.4758 74.4038 43.0431C74.1765 42.6105 74.0628 42.1081 74.0628 41.5361C74.0628 40.9495 74.1765 40.4398 74.4038 40.0071C74.6385 39.5671 74.9612 39.2261 75.3718 38.9841C75.7825 38.7348 76.2592 38.6101 76.8018 38.6101C77.3445 38.6101 77.8102 38.7311 78.1988 38.9731C78.5875 39.2151 78.8882 39.5378 79.1008 39.9411C79.3135 40.3371 79.4198 40.7771 79.4198 41.2611C79.4198 41.3345 79.4162 41.4151 79.4088 41.5031C79.4088 41.5838 79.4052 41.6755 79.3978 41.7781H74.8658V40.9971H78.3198C78.2978 40.5351 78.1438 40.1758 77.8578 39.9191C77.5718 39.6551 77.2162 39.5231 76.7908 39.5231C76.4902 39.5231 76.2152 39.5928 75.9658 39.7321C75.7165 39.8641 75.5148 40.0621 75.3608 40.3261C75.2142 40.5828 75.1408 40.9091 75.1408 41.3051V41.6131C75.1408 42.0238 75.2142 42.3721 75.3608 42.6581C75.5148 42.9368 75.7165 43.1495 75.9658 43.2961C76.2152 43.4355 76.4865 43.5051 76.7798 43.5051C77.1318 43.5051 77.4215 43.4281 77.6488 43.2741C77.8762 43.1201 78.0448 42.9111 78.1548 42.6471H79.2548C79.1595 42.9845 78.9982 43.2888 78.7708 43.5601C78.5435 43.8241 78.2612 44.0331 77.9238 44.1871C77.5938 44.3411 77.2125 44.4181 76.7798 44.4181ZM81.6151 44.2861L79.5361 38.7421H80.6911L82.2641 43.2301L83.8481 38.7421H84.9811L82.9131 44.2861H81.6151ZM87.6218 44.4181C87.1891 44.4181 86.8115 44.3301 86.4888 44.1541C86.1735 43.9781 85.9278 43.7141 85.7518 43.3621C85.5831 43.0101 85.4988 42.5665 85.4988 42.0311V38.7421H86.5988V41.9101C86.5988 42.4308 86.7125 42.8231 86.9398 43.0871C87.1671 43.3511 87.4935 43.4831 87.9188 43.4831C88.2048 43.4831 88.4615 43.4135 88.6888 43.2741C88.9235 43.1348 89.1068 42.9331 89.2388 42.6691C89.3708 42.4051 89.4368 42.0825 89.4368 41.7011V38.7421H90.5368V44.2861H89.5578L89.4808 43.3401C89.3121 43.6775 89.0665 43.9415 88.7438 44.1321C88.4211 44.3228 88.0471 44.4181 87.6218 44.4181ZM95.9353 44.2861V37.4881H93.6583V36.5861H99.3233V37.4881H97.0353V44.2861H95.9353ZM100.975 44.4181C100.52 44.4181 100.143 44.3411 99.8418 44.1871C99.5412 44.0331 99.3175 43.8278 99.1708 43.5711C99.0242 43.3071 98.9508 43.0248 98.9508 42.7241C98.9508 42.3575 99.0462 42.0458 99.2368 41.7891C99.4275 41.5251 99.6988 41.3235 100.051 41.1841C100.403 41.0448 100.825 40.9751 101.316 40.9751H102.757C102.757 40.6525 102.709 40.3848 102.614 40.1721C102.519 39.9595 102.376 39.8018 102.185 39.6991C102.002 39.5891 101.767 39.5341 101.481 39.5341C101.151 39.5341 100.869 39.6148 100.634 39.7761C100.399 39.9301 100.253 40.1611 100.194 40.4691H99.0938C99.1378 40.0805 99.2698 39.7505 99.4898 39.4791C99.7172 39.2005 100.007 38.9878 100.359 38.8411C100.711 38.6871 101.085 38.6101 101.481 38.6101C102.002 38.6101 102.438 38.7018 102.79 38.8851C103.142 39.0685 103.406 39.3288 103.582 39.6661C103.765 39.9961 103.857 40.3921 103.857 40.8541V44.2861H102.9L102.812 43.3511C102.731 43.4978 102.636 43.6371 102.526 43.7691C102.416 43.9011 102.284 44.0148 102.13 44.1101C101.983 44.2055 101.811 44.2788 101.613 44.3301C101.422 44.3888 101.21 44.4181 100.975 44.4181ZM101.184 43.5271C101.419 43.5271 101.631 43.4795 101.822 43.3841C102.013 43.2888 102.174 43.1605 102.306 42.9991C102.445 42.8305 102.548 42.6435 102.614 42.4381C102.687 42.2255 102.728 42.0091 102.735 41.7891V41.7561H101.426C101.111 41.7561 100.854 41.7965 100.656 41.8771C100.465 41.9505 100.326 42.0531 100.238 42.1851C100.15 42.3171 100.106 42.4711 100.106 42.6471C100.106 42.8305 100.146 42.9881 100.227 43.1201C100.315 43.2448 100.44 43.3438 100.601 43.4171C100.762 43.4905 100.957 43.5271 101.184 43.5271ZM108.363 44.2861L105.811 41.2501L108.121 38.7421H109.452L106.702 41.6791V40.8541L109.749 44.2861H108.363ZM104.876 44.2861V36.3661H105.976V44.2861H104.876ZM110.369 44.2861V38.7421H111.469V44.2861H110.369ZM110.93 37.6971C110.717 37.6971 110.541 37.6311 110.402 37.4991C110.27 37.3671 110.204 37.1985 110.204 36.9931C110.204 36.7951 110.27 36.6338 110.402 36.5091C110.541 36.3771 110.717 36.3111 110.93 36.3111C111.135 36.3111 111.307 36.3771 111.447 36.5091C111.586 36.6338 111.656 36.7951 111.656 36.9931C111.656 37.1985 111.586 37.3671 111.447 37.4991C111.307 37.6311 111.135 37.6971 110.93 37.6971ZM112.657 46.7061V38.7421H113.647L113.757 39.6001C113.874 39.4315 114.021 39.2738 114.197 39.1271C114.373 38.9731 114.582 38.8485 114.824 38.7531C115.073 38.6578 115.363 38.6101 115.693 38.6101C116.221 38.6101 116.683 38.7385 117.079 38.9951C117.482 39.2518 117.794 39.6001 118.014 40.0401C118.241 40.4728 118.355 40.9678 118.355 41.5251C118.355 42.0825 118.241 42.5811 118.014 43.0211C117.786 43.4538 117.471 43.7948 117.068 44.0441C116.672 44.2935 116.21 44.4181 115.682 44.4181C115.249 44.4181 114.868 44.3338 114.538 44.1651C114.208 43.9891 113.947 43.7471 113.757 43.4391V46.7061H112.657ZM115.506 43.4611C115.843 43.4611 116.14 43.3805 116.397 43.2191C116.661 43.0578 116.866 42.8305 117.013 42.5371C117.167 42.2438 117.244 41.9028 117.244 41.5141C117.244 41.1255 117.167 40.7881 117.013 40.5021C116.866 40.2088 116.661 39.9815 116.397 39.8201C116.14 39.6515 115.843 39.5671 115.506 39.5671C115.161 39.5671 114.857 39.6515 114.593 39.8201C114.336 39.9815 114.134 40.2088 113.988 40.5021C113.841 40.7881 113.768 41.1255 113.768 41.5141C113.768 41.9028 113.841 42.2438 113.988 42.5371C114.134 42.8305 114.336 43.0578 114.593 43.2191C114.857 43.3805 115.161 43.4611 115.506 43.4611ZM124.258 44.4181C123.693 44.4181 123.198 44.3191 122.773 44.1211C122.347 43.9158 122.017 43.6298 121.783 43.2631C121.548 42.8965 121.431 42.4675 121.431 41.9761H122.586C122.593 42.2548 122.659 42.5115 122.784 42.7461C122.916 42.9735 123.103 43.1568 123.345 43.2961C123.594 43.4281 123.898 43.4941 124.258 43.4941C124.566 43.4941 124.83 43.4428 125.05 43.3401C125.277 43.2375 125.449 43.0981 125.567 42.9221C125.684 42.7388 125.743 42.5298 125.743 42.2951C125.743 42.0238 125.68 41.8001 125.556 41.6241C125.431 41.4481 125.262 41.3051 125.05 41.1951C124.844 41.0778 124.602 40.9751 124.324 40.8871C124.052 40.7991 123.766 40.7038 123.466 40.6011C122.857 40.4031 122.402 40.1465 122.102 39.8311C121.808 39.5158 121.662 39.1051 121.662 38.5991C121.662 38.1665 121.764 37.7925 121.97 37.4771C122.175 37.1545 122.461 36.9051 122.828 36.7291C123.202 36.5458 123.642 36.4541 124.148 36.4541C124.646 36.4541 125.083 36.5458 125.457 36.7291C125.831 36.9125 126.124 37.1655 126.337 37.4881C126.549 37.8108 126.656 38.1885 126.656 38.6211H125.49C125.49 38.4231 125.438 38.2288 125.336 38.0381C125.233 37.8475 125.079 37.6935 124.874 37.5761C124.668 37.4515 124.415 37.3891 124.115 37.3891C123.865 37.3818 123.642 37.4221 123.444 37.5101C123.246 37.5981 123.092 37.7265 122.982 37.8951C122.872 38.0638 122.817 38.2655 122.817 38.5001C122.817 38.7348 122.864 38.9255 122.96 39.0721C123.062 39.2115 123.209 39.3325 123.4 39.4351C123.59 39.5378 123.81 39.6331 124.06 39.7211C124.316 39.8018 124.599 39.8935 124.907 39.9961C125.288 40.1208 125.625 40.2748 125.919 40.4581C126.219 40.6341 126.454 40.8651 126.623 41.1511C126.799 41.4298 126.887 41.7891 126.887 42.2291C126.887 42.6105 126.788 42.9661 126.59 43.2961C126.392 43.6261 126.098 43.8975 125.71 44.1101C125.321 44.3155 124.837 44.4181 124.258 44.4181ZM127.832 44.2861V38.7421H128.932V44.2861H127.832ZM128.393 37.6971C128.18 37.6971 128.004 37.6311 127.865 37.4991C127.733 37.3671 127.667 37.1985 127.667 36.9931C127.667 36.7951 127.733 36.6338 127.865 36.5091C128.004 36.3771 128.18 36.3111 128.393 36.3111C128.598 36.3111 128.77 36.3771 128.91 36.5091C129.049 36.6338 129.119 36.7951 129.119 36.9931C129.119 37.1985 129.049 37.3671 128.91 37.4991C128.77 37.6311 128.598 37.6971 128.393 37.6971ZM132.265 44.4181C131.795 44.4181 131.385 44.3411 131.033 44.1871C130.681 44.0331 130.402 43.8168 130.197 43.5381C129.991 43.2595 129.867 42.9331 129.823 42.5591H130.945C130.981 42.7351 131.051 42.8965 131.154 43.0431C131.264 43.1898 131.41 43.3071 131.594 43.3951C131.784 43.4831 132.008 43.5271 132.265 43.5271C132.507 43.5271 132.705 43.4941 132.859 43.4281C133.02 43.3548 133.137 43.2595 133.211 43.1421C133.284 43.0175 133.321 42.8855 133.321 42.7461C133.321 42.5408 133.269 42.3868 133.167 42.2841C133.071 42.1741 132.925 42.0898 132.727 42.0311C132.536 41.9651 132.305 41.9065 132.034 41.8551C131.777 41.8111 131.528 41.7525 131.286 41.6791C131.051 41.5985 130.838 41.4995 130.648 41.3821C130.464 41.2648 130.318 41.1181 130.208 40.9421C130.098 40.7588 130.043 40.5351 130.043 40.2711C130.043 39.9558 130.127 39.6735 130.296 39.4241C130.464 39.1675 130.703 38.9695 131.011 38.8301C131.326 38.6835 131.696 38.6101 132.122 38.6101C132.738 38.6101 133.233 38.7568 133.607 39.0501C133.981 39.3435 134.201 39.7578 134.267 40.2931H133.2C133.17 40.0438 133.06 39.8531 132.87 39.7211C132.679 39.5818 132.426 39.5121 132.111 39.5121C131.795 39.5121 131.553 39.5745 131.385 39.6991C131.216 39.8238 131.132 39.9888 131.132 40.1941C131.132 40.3261 131.179 40.4435 131.275 40.5461C131.37 40.6488 131.509 40.7368 131.693 40.8101C131.883 40.8761 132.114 40.9385 132.386 40.9971C132.774 41.0705 133.123 41.1621 133.431 41.2721C133.739 41.3821 133.984 41.5435 134.168 41.7561C134.351 41.9688 134.443 42.2731 134.443 42.6691C134.45 43.0138 134.362 43.3181 134.179 43.5821C134.003 43.8461 133.75 44.0515 133.42 44.1981C133.097 44.3448 132.712 44.4181 132.265 44.4181ZM137.415 44.2861C137.063 44.2861 136.759 44.2311 136.502 44.1211C136.246 44.0111 136.048 43.8278 135.908 43.5711C135.769 43.3145 135.699 42.9661 135.699 42.5261V39.6771H134.742V38.7421H135.699L135.831 37.3561H136.799V38.7421H138.372V39.6771H136.799V42.5371C136.799 42.8525 136.865 43.0688 136.997 43.1861C137.129 43.2961 137.357 43.3511 137.679 43.3511H138.317V44.2861H137.415ZM141.558 44.4181C141.03 44.4181 140.56 44.2971 140.15 44.0551C139.739 43.8131 139.416 43.4758 139.182 43.0431C138.954 42.6105 138.841 42.1081 138.841 41.5361C138.841 40.9495 138.954 40.4398 139.182 40.0071C139.416 39.5671 139.739 39.2261 140.15 38.9841C140.56 38.7348 141.037 38.6101 141.58 38.6101C142.122 38.6101 142.588 38.7311 142.977 38.9731C143.365 39.2151 143.666 39.5378 143.879 39.9411C144.091 40.3371 144.198 40.7771 144.198 41.2611C144.198 41.3345 144.194 41.4151 144.187 41.5031C144.187 41.5838 144.183 41.6755 144.176 41.7781H139.644V40.9971H143.098C143.076 40.5351 142.922 40.1758 142.636 39.9191C142.35 39.6551 141.994 39.5231 141.569 39.5231C141.268 39.5231 140.993 39.5928 140.744 39.7321C140.494 39.8641 140.293 40.0621 140.139 40.3261C139.992 40.5828 139.919 40.9091 139.919 41.3051V41.6131C139.919 42.0238 139.992 42.3721 140.139 42.6581C140.293 42.9368 140.494 43.1495 140.744 43.2961C140.993 43.4355 141.264 43.5051 141.558 43.5051C141.91 43.5051 142.199 43.4281 142.427 43.2741C142.654 43.1201 142.823 42.9111 142.933 42.6471H144.033C143.937 42.9845 143.776 43.2888 143.549 43.5601C143.321 43.8241 143.039 44.0331 142.702 44.1871C142.372 44.3411 141.99 44.4181 141.558 44.4181ZM145.035 44.2861V38.7421H146.025L146.102 39.5231C146.278 39.2371 146.513 39.0135 146.806 38.8521C147.099 38.6908 147.429 38.6101 147.796 38.6101C148.075 38.6101 148.328 38.6505 148.555 38.7311C148.782 38.8045 148.984 38.9181 149.16 39.0721C149.336 39.2261 149.479 39.4168 149.589 39.6441C149.787 39.3215 150.051 39.0685 150.381 38.8851C150.718 38.7018 151.074 38.6101 151.448 38.6101C151.895 38.6101 152.28 38.7018 152.603 38.8851C152.926 39.0611 153.171 39.3288 153.34 39.6881C153.509 40.0401 153.593 40.4801 153.593 41.0081V44.2861H152.504V41.1181C152.504 40.6048 152.398 40.2161 152.185 39.9521C151.98 39.6881 151.675 39.5561 151.272 39.5561C151.001 39.5561 150.759 39.6258 150.546 39.7651C150.333 39.9045 150.165 40.1061 150.04 40.3701C149.923 40.6341 149.864 40.9568 149.864 41.3381V44.2861H148.764V41.1181C148.764 40.6048 148.658 40.2161 148.445 39.9521C148.24 39.6881 147.935 39.5561 147.532 39.5561C147.275 39.5561 147.041 39.6258 146.828 39.7651C146.615 39.9045 146.447 40.1061 146.322 40.3701C146.197 40.6341 146.135 40.9568 146.135 41.3381V44.2861H145.035ZM154.706 44.2861V38.7421H155.806V44.2861H154.706ZM155.267 37.6971C155.055 37.6971 154.879 37.6311 154.739 37.4991C154.607 37.3671 154.541 37.1985 154.541 36.9931C154.541 36.7951 154.607 36.6338 154.739 36.5091C154.879 36.3771 155.055 36.3111 155.267 36.3111C155.473 36.3111 155.645 36.3771 155.784 36.5091C155.924 36.6338 155.993 36.7951 155.993 36.9931C155.993 37.1985 155.924 37.3671 155.784 37.4991C155.645 37.6311 155.473 37.6971 155.267 37.6971Z" fill="#63716E"/>
<path d="M1.136 15V3.8H3.056V8.424L7.28 3.8H9.664L5.52 8.248L9.76 15H7.424L4.16 9.72L3.056 10.92V15H1.136ZM18.4638 15.192C17.3864 15.192 16.4318 14.952 15.5998 14.472C14.7784 13.9813 14.1331 13.304 13.6638 12.44C13.1944 11.5653 12.9598 10.552 12.9598 9.4C12.9598 8.25867 13.1944 7.256 13.6638 6.392C14.1331 5.51733 14.7784 4.83467 15.5998 4.344C16.4318 3.85333 17.3864 3.608 18.4638 3.608C19.5624 3.608 20.5278 3.85333 21.3598 4.344C22.1918 4.83467 22.8371 5.51733 23.2958 6.392C23.7544 7.256 23.9838 8.25867 23.9838 9.4C23.9838 10.552 23.7544 11.5653 23.2958 12.44C22.8371 13.304 22.1918 13.9813 21.3598 14.472C20.5278 14.952 19.5624 15.192 18.4638 15.192ZM18.4798 13.464C19.1944 13.464 19.8184 13.304 20.3518 12.984C20.8851 12.6533 21.2958 12.184 21.5838 11.576C21.8718 10.968 22.0158 10.2427 22.0158 9.4C22.0158 8.55733 21.8718 7.832 21.5838 7.224C21.2958 6.616 20.8851 6.152 20.3518 5.832C19.8184 5.50133 19.1944 5.336 18.4798 5.336C17.7651 5.336 17.1411 5.50133 16.6078 5.832C16.0744 6.152 15.6584 6.616 15.3598 7.224C15.0718 7.832 14.9278 8.55733 14.9278 9.4C14.9278 10.2427 15.0718 10.968 15.3598 11.576C15.6584 12.184 16.0744 12.6533 16.6078 12.984C17.1411 13.304 17.7651 13.464 18.4798 13.464ZM28.7398 15V3.8H30.6598L36.0518 11.896V3.8H37.9718V15H36.0518L30.6598 6.92V15H28.7398ZM45.9521 15V10.968L42.2241 3.8H44.4001L47.1361 9.496H46.7201L49.4561 3.8H51.6161L47.8721 10.968V15H45.9521ZM53.8575 15L57.9535 3.8H60.0975L64.1935 15H62.1615L59.0095 6.04L55.8575 15H53.8575ZM55.6815 12.36L56.1935 10.84H61.7135L62.2255 12.36H55.6815ZM75.4004 15V3.8H77.3204L82.7124 11.896V3.8H84.6324V15H82.7124L77.3204 6.92V15H75.4004ZM94.0048 15.192C93.1941 15.192 92.4581 15.032 91.7968 14.712C91.1461 14.392 90.6234 13.9013 90.2288 13.24C89.8448 12.5787 89.6528 11.7467 89.6528 10.744V3.8H91.5728V10.76C91.5728 11.368 91.6741 11.8693 91.8768 12.264C92.0794 12.6587 92.3621 12.9573 92.7248 13.16C93.0981 13.352 93.5354 13.448 94.0368 13.448C94.5488 13.448 94.9861 13.352 95.3488 13.16C95.7221 12.9573 96.0048 12.6587 96.1968 12.264C96.3994 11.8693 96.5008 11.368 96.5008 10.76V3.8H98.4208V10.744C98.4208 11.7467 98.2234 12.5787 97.8288 13.24C97.4341 13.9013 96.9008 14.392 96.2288 14.712C95.5568 15.032 94.8154 15.192 94.0048 15.192ZM103.457 15V3.8H105.729L109.313 11.032L112.865 3.8H115.153V15H113.233V7.096L110.065 13.432H108.561L105.377 7.112V15H103.457ZM124.546 15.192C123.735 15.192 122.999 15.032 122.338 14.712C121.687 14.392 121.165 13.9013 120.77 13.24C120.386 12.5787 120.194 11.7467 120.194 10.744V3.8H122.114V10.76C122.114 11.368 122.215 11.8693 122.418 12.264C122.621 12.6587 122.903 12.9573 123.266 13.16C123.639 13.352 124.077 13.448 124.578 13.448C125.09 13.448 125.527 13.352 125.89 13.16C126.263 12.9573 126.546 12.6587 126.738 12.264C126.941 11.8693 127.042 11.368 127.042 10.76V3.8H128.962V10.744C128.962 11.7467 128.765 12.5787 128.37 13.24C127.975 13.9013 127.442 14.392 126.77 14.712C126.098 15.032 125.357 15.192 124.546 15.192ZM133.999 15V3.8H135.919L141.311 11.896V3.8H143.231V15H141.311L135.919 6.92V15H133.999ZM148.363 15V3.8H155.595V5.352H150.283V8.568H155.115V10.088H150.283V13.448H155.595V15H148.363Z" fill="#0E4D41"/>
<path d="M8.208 32.6328V21.4328H10.128V32.6328H8.208ZM1.136 32.6328V21.4328H3.056V32.6328H1.136ZM2.768 27.7048V26.1368H8.576V27.7048H2.768ZM20.6256 32.6328L24.7216 21.4328H26.8656L30.9616 32.6328H28.9296L25.7776 23.6728L22.6256 32.6328H20.6256ZM22.4496 29.9928L22.9616 28.4728H28.4816L28.9936 29.9928H22.4496ZM45.2222 32.8248C44.4116 32.8248 43.6916 32.6808 43.0622 32.3928C42.4329 32.1048 41.9422 31.6941 41.5902 31.1608C41.2382 30.6275 41.0569 29.9928 41.0462 29.2568H43.0782C43.0782 29.6301 43.1636 29.9661 43.3342 30.2648C43.5156 30.5528 43.7609 30.7821 44.0702 30.9528C44.3902 31.1235 44.7742 31.2088 45.2222 31.2088C45.6062 31.2088 45.9369 31.1501 46.2142 31.0328C46.5022 30.9048 46.7209 30.7288 46.8702 30.5048C47.0302 30.2701 47.1102 29.9981 47.1102 29.6888C47.1102 29.3368 47.0249 29.0488 46.8542 28.8248C46.6942 28.5901 46.4702 28.3928 46.1822 28.2328C45.8942 28.0728 45.5636 27.9341 45.1902 27.8168C44.8169 27.6888 44.4222 27.5555 44.0062 27.4168C43.1209 27.1181 42.4542 26.7395 42.0062 26.2808C41.5582 25.8115 41.3342 25.1875 41.3342 24.4088C41.3342 23.7581 41.4889 23.1981 41.7982 22.7288C42.1076 22.2595 42.5396 21.8968 43.0942 21.6408C43.6596 21.3741 44.3102 21.2408 45.0462 21.2408C45.7929 21.2408 46.4436 21.3741 46.9982 21.6408C47.5636 21.9075 48.0062 22.2808 48.3262 22.7608C48.6569 23.2301 48.8276 23.7955 48.8382 24.4568H46.7902C46.7796 24.1795 46.7049 23.9235 46.5662 23.6888C46.4276 23.4435 46.2249 23.2461 45.9582 23.0968C45.7022 22.9368 45.3876 22.8568 45.0142 22.8568C44.6942 22.8461 44.4062 22.8995 44.1502 23.0168C43.9049 23.1235 43.7076 23.2835 43.5582 23.4968C43.4196 23.6995 43.3502 23.9555 43.3502 24.2648C43.3502 24.5635 43.4142 24.8141 43.5422 25.0168C43.6809 25.2088 43.8782 25.3741 44.1342 25.5128C44.3902 25.6408 44.6889 25.7635 45.0302 25.8808C45.3716 25.9981 45.7449 26.1261 46.1502 26.2648C46.7049 26.4461 47.2062 26.6701 47.6542 26.9368C48.1129 27.1928 48.4756 27.5288 48.7422 27.9448C49.0089 28.3608 49.1422 28.8995 49.1422 29.5608C49.1422 30.1368 48.9929 30.6755 48.6942 31.1768C48.3956 31.6675 47.9582 32.0675 47.3822 32.3768C46.8062 32.6755 46.0862 32.8248 45.2222 32.8248ZM62.4209 32.6328V22.9848H59.1249V21.4328H67.6209V22.9848H64.3249V32.6328H62.4209ZM76.2244 32.6328L80.3204 21.4328H82.4644L86.5604 32.6328H84.5284L81.3764 23.6728L78.2244 32.6328H76.2244ZM78.0484 29.9928L78.5604 28.4728H84.0804L84.5924 29.9928H78.0484ZM97.061 32.6328V21.4328H98.981L104.373 29.5288V21.4328H106.293V32.6328H104.373L98.981 24.5528V32.6328H97.061ZM117.505 32.6328V21.4328H124.737V22.9848H119.425V26.2008H124.257V27.7208H119.425V31.0808H124.737V32.6328H117.505ZM139.475 32.8248C138.665 32.8248 137.945 32.6808 137.315 32.3928C136.686 32.1048 136.195 31.6941 135.843 31.1608C135.491 30.6275 135.31 29.9928 135.299 29.2568H137.331C137.331 29.6301 137.417 29.9661 137.587 30.2648C137.769 30.5528 138.014 30.7821 138.323 30.9528C138.643 31.1235 139.027 31.2088 139.475 31.2088C139.859 31.2088 140.19 31.1501 140.467 31.0328C140.755 30.9048 140.974 30.7288 141.123 30.5048C141.283 30.2701 141.363 29.9981 141.363 29.6888C141.363 29.3368 141.278 29.0488 141.107 28.8248C140.947 28.5901 140.723 28.3928 140.435 28.2328C140.147 28.0728 139.817 27.9341 139.443 27.8168C139.07 27.6888 138.675 27.5555 138.259 27.4168C137.374 27.1181 136.707 26.7395 136.259 26.2808C135.811 25.8115 135.587 25.1875 135.587 24.4088C135.587 23.7581 135.742 23.1981 136.051 22.7288C136.361 22.2595 136.793 21.8968 137.347 21.6408C137.913 21.3741 138.563 21.2408 139.299 21.2408C140.046 21.2408 140.697 21.3741 141.251 21.6408C141.817 21.9075 142.259 22.2808 142.579 22.7608C142.91 23.2301 143.081 23.7955 143.091 24.4568H141.043C141.033 24.1795 140.958 23.9235 140.819 23.6888C140.681 23.4435 140.478 23.2461 140.211 23.0968C139.955 22.9368 139.641 22.8568 139.267 22.8568C138.947 22.8461 138.659 22.8995 138.403 23.0168C138.158 23.1235 137.961 23.2835 137.811 23.4968C137.673 23.6995 137.603 23.9555 137.603 24.2648C137.603 24.5635 137.667 24.8141 137.795 25.0168C137.934 25.2088 138.131 25.3741 138.387 25.5128C138.643 25.6408 138.942 25.7635 139.283 25.8808C139.625 25.9981 139.998 26.1261 140.403 26.2648C140.958 26.4461 141.459 26.6701 141.907 26.9368C142.366 27.1928 142.729 27.5288 142.995 27.9448C143.262 28.3608 143.395 28.8995 143.395 29.5608C143.395 30.1368 143.246 30.6755 142.947 31.1768C142.649 31.6675 142.211 32.0675 141.635 32.3768C141.059 32.6755 140.339 32.8248 139.475 32.8248ZM154.222 32.6328V21.4328H156.142V32.6328H154.222ZM155.182 20.4088C154.916 20.4088 154.686 20.3181 154.494 20.1368C154.313 19.9448 154.222 19.7155 154.222 19.4488C154.222 19.1821 154.313 18.9581 154.494 18.7768C154.686 18.5848 154.916 18.4888 155.182 18.4888C155.438 18.4888 155.657 18.5848 155.838 18.7768C156.03 18.9581 156.126 19.1821 156.126 19.4488C156.126 19.7155 156.03 19.9448 155.838 20.1368C155.657 20.3181 155.438 20.4088 155.182 20.4088Z" fill="#0E4D41"/>
</svg>
