<?xml version="1.0" encoding="UTF-8"?>
<svg id="katman_1" xmlns="http://www.w3.org/2000/svg" version="1.1" viewBox="0 0 300 250">
  <!-- Generator: Adobe Illustrator 29.7.1, SVG Export Plug-In . SVG Version: 2.1.1 Build 8)  -->
  <defs>
    <style>
      .st0, .st1 {
        fill: #fff;
      }

      .st1 {
        fill-rule: evenodd;
      }
    </style>
  </defs>
  <g>
    <path class="st0" d="M59,234.4h1.5v5.7h0c.3-.5.6-.9.9-1.3l3.6-4.4h1.9l-4.2,5,4.5,6.7h-1.8l-3.8-5.8-1.1,1.3v4.5h-1.5v-11.7Z"/>
    <path class="st0" d="M75.9,241.9c0,3.1-2.1,4.5-4.2,4.5s-4-1.7-4-4.3,1.8-4.5,4.1-4.5,4,1.8,4,4.3ZM69.2,242c0,1.8,1.1,3.2,2.5,3.2s2.5-1.4,2.5-3.3-.7-3.2-2.5-3.2-2.6,1.7-2.6,3.3Z"/>
    <path class="st0" d="M77.8,240c0-.9,0-1.6,0-2.3h1.3v1.4h.1c.4-.8,1.4-1.6,2.8-1.6s3,.7,3,3.6v5h-1.5v-4.9c0-1.4-.5-2.5-1.9-2.5s-1.8.7-2,1.6c0,.2-.1.5-.1.7v5.1h-1.5v-6.1Z"/>
    <path class="st0" d="M87.7,237.7l1.8,5c.2.6.4,1.2.5,1.7h0c.2-.5.3-1.1.5-1.8l1.7-4.9h1.6l-2.3,6c-1.1,2.9-1.8,4.4-2.9,5.3-.7.7-1.5.9-1.9,1l-.4-1.3c.4-.1.9-.4,1.3-.7.4-.3.9-.9,1.3-1.7,0-.2.1-.3.1-.4s0-.2-.1-.4l-3.1-7.8h1.7Z"/>
    <path class="st0" d="M99.9,246.2v-1.1h-.2c-.5.7-1.4,1.3-2.6,1.3-1.7,0-2.6-1.2-2.6-2.4,0-2,1.8-3.1,5-3.1v-.2c0-.7-.2-1.9-1.9-1.9s-1.6.2-2.2.6l-.3-1c.7-.5,1.7-.7,2.7-.7,2.6,0,3.2,1.8,3.2,3.4v3.1c0,.7,0,1.4.1,2h-1.4ZM99.6,241.9c-1.7,0-3.5.3-3.5,1.9s.7,1.5,1.4,1.5,1.8-.7,2-1.4c0-.2,0-.3,0-.5v-1.5Z"/>
    <path class="st0" d="M107.3,246.2v-11.7h1.6l3.7,5.9c.9,1.4,1.5,2.6,2.1,3.8h0c-.1-1.6-.2-3-.2-4.8v-4.9h1.4v11.7h-1.5l-3.7-5.9c-.8-1.3-1.6-2.6-2.2-3.9h0c0,1.5.1,2.9.1,4.9v5h-1.4Z"/>
    <path class="st0" d="M125.6,243.9c0,.9,0,1.6,0,2.3h-1.3v-1.4h-.1c-.4.7-1.3,1.6-2.8,1.6s-2.9-.7-2.9-3.7v-4.9h1.5v4.7c0,1.6.5,2.7,1.9,2.7s1.7-.7,2-1.4c0-.2.1-.5.1-.8v-5.2h1.5v6.1Z"/>
    <path class="st0" d="M128.1,240c0-.9,0-1.6,0-2.3h1.3v1.4h.1c.5-.8,1.2-1.5,2.6-1.5s2,.7,2.4,1.7h0c.3-.5.6-.8.9-1.1.5-.4,1.1-.6,1.8-.6s2.7.7,2.7,3.7v5h-1.5v-4.8c0-1.6-.6-2.6-1.8-2.6s-1.5.6-1.8,1.4c0,.2-.1.5-.1.8v5.2h-1.5v-5c0-1.3-.6-2.3-1.7-2.3s-1.6.8-1.9,1.5c0,.2-.1.5-.1.7v5.1h-1.5v-6.1Z"/>
    <path class="st0" d="M149.5,243.9c0,.9,0,1.6,0,2.3h-1.3v-1.4h-.1c-.4.7-1.3,1.6-2.8,1.6s-2.9-.7-2.9-3.7v-4.9h1.5v4.7c0,1.6.5,2.7,1.9,2.7s1.7-.7,2-1.4c0-.2.1-.5.1-.8v-5.2h1.5v6.1Z"/>
    <path class="st0" d="M152,240c0-.9,0-1.6,0-2.3h1.3v1.4h.1c.4-.8,1.4-1.6,2.8-1.6s3,.7,3,3.6v5h-1.5v-4.9c0-1.4-.5-2.5-1.9-2.5s-1.8.7-2,1.6c0,.2-.1.5-.1.7v5.1h-1.5v-6.1Z"/>
    <path class="st0" d="M162.5,242.2c0,2.1,1.3,2.9,2.9,2.9s1.7-.2,2.3-.4l.3,1.1c-.5.2-1.5.5-2.8.5-2.6,0-4.1-1.7-4.1-4.2s1.5-4.5,3.9-4.5,3.5,2.4,3.5,4,0,.6,0,.7h-5.9ZM166.9,241.1c0-1-.4-2.5-2.1-2.5s-2.2,1.4-2.3,2.5h4.4Z"/>
    <path class="st0" d="M175.5,234.4v4.9h5.6v-4.9h1.5v11.7h-1.5v-5.5h-5.6v5.5h-1.5v-11.7h1.5Z"/>
    <path class="st0" d="M189.9,246.2v-1.1h-.2c-.5.7-1.4,1.3-2.6,1.3-1.7,0-2.6-1.2-2.6-2.4,0-2,1.8-3.1,5-3.1v-.2c0-.7-.2-1.9-1.9-1.9s-1.6.2-2.2.6l-.3-1c.7-.5,1.7-.7,2.7-.7,2.6,0,3.2,1.8,3.2,3.4v3.1c0,.7,0,1.4.1,2h-1.4ZM189.6,241.9c-1.7,0-3.5.3-3.5,1.9s.7,1.5,1.4,1.5,1.8-.7,2-1.4c0-.2,0-.3,0-.5v-1.5Z"/>
    <path class="st0" d="M193.3,244.6c.4.3,1.2.6,2,.6,1.1,0,1.6-.6,1.6-1.3s-.4-1.1-1.6-1.5c-1.5-.5-2.2-1.4-2.2-2.4s1.1-2.5,2.9-2.5,1.6.2,2.1.5l-.4,1.1c-.3-.2-.9-.5-1.7-.5s-1.4.5-1.4,1.1.5,1,1.6,1.4c1.5.6,2.2,1.3,2.2,2.5s-1.1,2.5-3.1,2.5-1.8-.2-2.4-.6l.4-1.2Z"/>
    <path class="st0" d="M202.2,235.3v2.4h2.2v1.2h-2.2v4.5c0,1,.3,1.6,1.1,1.6s.7,0,.9-.1v1.1c-.2.1-.7.2-1.3.2s-1.3-.2-1.6-.6c-.4-.5-.6-1.2-.6-2.2v-4.6h-1.3v-1.2h1.3v-2l1.5-.4Z"/>
    <path class="st0" d="M210.8,246.2v-1.1h-.2c-.5.7-1.4,1.3-2.6,1.3-1.7,0-2.6-1.2-2.6-2.4,0-2,1.8-3.1,5-3.1v-.2c0-.7-.2-1.9-1.9-1.9s-1.6.2-2.2.6l-.3-1c.7-.5,1.7-.7,2.7-.7,2.6,0,3.2,1.8,3.2,3.4v3.1c0,.7,0,1.4.1,2h-1.4ZM210.5,241.9c-1.7,0-3.5.3-3.5,1.9s.7,1.5,1.4,1.5,1.8-.7,2-1.4c0-.2,0-.3,0-.5v-1.5Z"/>
    <path class="st0" d="M214.4,240c0-.9,0-1.6,0-2.3h1.3v1.4h.1c.4-.8,1.4-1.6,2.8-1.6s3,.7,3,3.6v5h-1.5v-4.9c0-1.4-.5-2.5-1.9-2.5s-1.8.7-2,1.6c0,.2-.1.5-.1.7v5.1h-1.5v-6.1Z"/>
    <path class="st0" d="M224.9,242.2c0,2.1,1.3,2.9,2.9,2.9s1.7-.2,2.3-.4l.3,1.1c-.5.2-1.5.5-2.8.5-2.6,0-4.1-1.7-4.1-4.2s1.5-4.5,3.9-4.5,3.5,2.4,3.5,4,0,.6,0,.7h-5.9ZM229.3,241.1c0-1-.4-2.5-2.1-2.5s-2.2,1.4-2.3,2.5h4.4Z"/>
    <path class="st0" d="M232.5,244.6c.4.3,1.2.6,2,.6,1.1,0,1.6-.6,1.6-1.3s-.4-1.1-1.6-1.5c-1.5-.5-2.2-1.4-2.2-2.4s1.1-2.5,2.9-2.5,1.6.2,2.1.5l-.4,1.1c-.3-.2-.9-.5-1.7-.5s-1.4.5-1.4,1.1.5,1,1.6,1.4c1.5.6,2.2,1.3,2.2,2.5s-1.1,2.5-3.1,2.5-1.8-.2-2.4-.6l.4-1.2Z"/>
    <path class="st0" d="M241.2,235.4c0,.5-.4.9-1,.9s-.9-.4-.9-.9.4-1,1-1,.9.4.9,1ZM239.5,246.2v-8.4h1.5v8.4h-1.5Z"/>
  </g>
  <g>
    <path class="st0" d="M119.9,179.2h1.9v7.1h0c.4-.6.8-1.1,1.1-1.6l4.5-5.5h2.3l-5.3,6.2,5.7,8.4h-2.2l-4.8-7.2-1.4,1.6v5.6h-1.9v-14.7Z"/>
    <path class="st0" d="M143.7,186.4c0,5-3,7.7-6.8,7.7s-6.5-3-6.5-7.4,2.9-7.7,6.8-7.7,6.5,3.1,6.5,7.4ZM132.4,186.6c0,3.1,1.7,5.9,4.6,5.9s4.7-2.8,4.7-6.1-1.5-6-4.6-6-4.7,2.9-4.7,6.1Z"/>
    <path class="st0" d="M146.1,193.9v-14.7h2.1l4.7,7.4c1.1,1.7,1.9,3.3,2.6,4.8h0c-.2-2-.2-3.8-.2-6v-6.1h1.8v14.7h-1.9l-4.6-7.4c-1-1.6-2-3.3-2.7-4.9h0c.1,1.9.2,3.6.2,6.1v6.3h-1.8Z"/>
    <path class="st0" d="M163.4,193.9v-6.2l-4.6-8.4h2.1l2.1,4c.6,1.1,1,2,1.4,3h0c.4-1,.9-1.9,1.5-3l2.1-4h2.1l-4.9,8.4v6.2h-1.9Z"/>
    <path class="st0" d="M172.5,189.3l-1.5,4.6h-1.9l4.9-14.7h2.3l5,14.7h-2l-1.6-4.6h-5.2ZM177.3,187.8l-1.4-4.2c-.3-1-.5-1.8-.8-2.7h0c-.2.9-.5,1.8-.7,2.7l-1.4,4.2h4.4Z"/>
    <path class="st0" d="M45.7,204.4c0-.6.5-1.1,1.1-1.1s1,.5,1,1.1-.5,1.1-1,1.1-1.1-.5-1.1-1.1ZM47.7,206.5v14.7h-1.9v-14.7h1.9Z"/>
    <path class="st0" d="M50.9,206.5h1.9v13.1h6.2v1.6h-8.1v-14.7Z"/>
    <path class="st0" d="M65.5,218.9c.8.5,2.1,1,3.4,1,1.9,0,3-1,3-2.5s-.8-2.2-2.7-2.9c-2.4-.8-3.8-2.1-3.8-4.2s1.9-4,4.7-4,2.6.3,3.2.7l-.5,1.5c-.5-.3-1.4-.7-2.8-.7-2,0-2.7,1.2-2.7,2.2s.9,2,2.9,2.8c2.5,1,3.7,2.2,3.7,4.3s-1.7,4.2-5.1,4.2-2.9-.4-3.7-.9l.5-1.6Z"/>
    <path class="st0" d="M78.7,216.6l-1.5,4.6h-1.9l4.9-14.7h2.3l5,14.7h-2l-1.6-4.6h-5.2ZM83.5,215.1l-1.4-4.2c-.3-1-.5-1.8-.8-2.7h0c-.2.9-.5,1.8-.7,2.7l-1.4,4.2h4.4Z"/>
    <path class="st0" d="M100.3,220.6c-.8.3-2.5.8-4.5.8s-4-.6-5.4-1.9c-1.3-1.2-2-3.2-2-5.5,0-4.4,3-7.6,7.9-7.6s3,.4,3.6.7l-.5,1.5c-.8-.3-1.8-.6-3.2-.6-3.5,0-5.9,2.2-5.9,5.9s2.2,5.9,5.6,5.9,2.1-.2,2.5-.4v-4.4h-3v-1.5h4.8v7ZM93.9,203.2c.1.5.5,1.1,1.5,1.1s1.5-.5,1.6-1.1h1.1c0,1.3-.8,2.3-2.7,2.3s-2.6-1-2.7-2.3h1.1Z"/>
    <path class="st0" d="M103.2,206.5h1.9v13.1h6.2v1.6h-8.1v-14.7Z"/>
    <path class="st0" d="M115.3,206.5v14.7h-1.9v-14.7h1.9Z"/>
    <path class="st0" d="M118.6,206.5h1.9v7.1h0c.4-.6.8-1.1,1.1-1.6l4.5-5.5h2.3l-5.3,6.2,5.7,8.4h-2.2l-4.8-7.2-1.4,1.6v5.6h-1.9v-14.7Z"/>
    <path class="st0" d="M147.1,214.8c-.1-2-.2-4.5-.2-6.3h0c-.5,1.7-1.1,3.5-1.8,5.6l-2.6,7.1h-1.4l-2.4-7c-.7-2.1-1.3-4-1.7-5.7h0c0,1.8-.2,4.3-.3,6.5l-.4,6.3h-1.8l1-14.7h2.4l2.5,7.1c.6,1.8,1.1,3.4,1.5,4.9h0c.4-1.5.9-3.1,1.5-4.9l2.6-7.1h2.4l.9,14.7h-1.8l-.4-6.4Z"/>
    <path class="st0" d="M154.1,206.5v8.7c0,3.3,1.4,4.7,3.4,4.7s3.5-1.4,3.5-4.7v-8.7h1.9v8.5c0,4.5-2.4,6.3-5.5,6.3s-5.2-1.7-5.2-6.3v-8.6h1.9ZM154.6,204.4c0-.6.5-1.1,1.1-1.1s1,.5,1,1.1-.4,1.1-1.1,1.1-1.1-.5-1.1-1.1ZM158.6,204.4c0-.6.5-1.1,1.1-1.1s1,.5,1,1.1-.4,1.1-1,1.1-1.1-.5-1.1-1.1Z"/>
    <path class="st0" d="M166.2,206.7c1.1-.2,2.5-.3,4-.3,2.7,0,4.6.6,5.9,1.8,1.3,1.2,2.1,2.9,2.1,5.3s-.7,4.3-2.1,5.7c-1.4,1.4-3.6,2.1-6.4,2.1s-2.5,0-3.4-.2v-14.4ZM168.1,219.7c.5,0,1.2.1,1.9.1,4,0,6.2-2.3,6.2-6.2,0-3.5-1.9-5.7-5.9-5.7s-1.7,0-2.2.2v11.6Z"/>
    <path class="st0" d="M182.5,206.5v8.7c0,3.3,1.4,4.7,3.4,4.7s3.5-1.4,3.5-4.7v-8.7h1.9v8.5c0,4.5-2.4,6.3-5.5,6.3s-5.2-1.7-5.2-6.3v-8.6h1.9ZM182.9,204.4c0-.6.5-1.1,1.1-1.1s1,.5,1,1.1-.4,1.1-1.1,1.1-1.1-.5-1.1-1.1ZM186.9,204.4c0-.6.5-1.1,1.1-1.1s1,.5,1,1.1-.4,1.1-1,1.1-1.1-.5-1.1-1.1Z"/>
    <path class="st0" d="M194.6,206.7c1-.2,2.3-.3,3.6-.3,2,0,3.3.4,4.2,1.2.7.7,1.1,1.7,1.1,2.8,0,1.9-1.2,3.2-2.7,3.7h0c1.1.5,1.8,1.5,2.1,3,.5,2,.8,3.5,1.1,4h-1.9c-.2-.4-.6-1.7-1-3.5-.4-2-1.2-2.8-2.9-2.8h-1.8v6.3h-1.9v-14.5ZM196.4,213.4h1.9c2,0,3.3-1.1,3.3-2.8s-1.4-2.7-3.3-2.7c-.9,0-1.6,0-1.9.2v5.3Z"/>
    <path class="st0" d="M206.2,206.5h1.9v13.1h6.2v1.6h-8.1v-14.7Z"/>
    <path class="st0" d="M217.5,206.5v8.7c0,3.3,1.4,4.7,3.4,4.7s3.5-1.4,3.5-4.7v-8.7h1.9v8.5c0,4.5-2.4,6.3-5.5,6.3s-5.2-1.7-5.2-6.3v-8.6h1.9ZM217.9,204.4c0-.6.5-1.1,1.1-1.1s1,.5,1,1.1-.4,1.1-1.1,1.1-1.1-.5-1.1-1.1ZM222,204.4c0-.6.5-1.1,1.1-1.1s1,.5,1,1.1-.4,1.1-1,1.1-1.1-.5-1.1-1.1Z"/>
    <path class="st0" d="M240.7,220.6c-.8.3-2.5.8-4.5.8s-4-.6-5.4-1.9c-1.3-1.2-2-3.2-2-5.5,0-4.4,3-7.6,7.9-7.6s3,.4,3.6.7l-.5,1.5c-.8-.3-1.7-.6-3.2-.6-3.5,0-5.9,2.2-5.9,5.9s2.2,5.9,5.6,5.9,2.1-.2,2.5-.4v-4.4h-3v-1.5h4.8v7ZM234.2,203.2c.1.5.5,1.1,1.5,1.1s1.5-.5,1.6-1.1h1.1c0,1.3-.8,2.3-2.7,2.3s-2.6-1-2.7-2.3h1.1Z"/>
    <path class="st0" d="M245.4,206.5v8.7c0,3.3,1.4,4.7,3.4,4.7s3.5-1.4,3.5-4.7v-8.7h1.9v8.5c0,4.5-2.4,6.3-5.5,6.3s-5.2-1.7-5.2-6.3v-8.6h1.9ZM245.9,204.4c0-.6.5-1.1,1.1-1.1s1,.5,1,1.1-.4,1.1-1.1,1.1-1.1-.5-1.1-1.1ZM249.9,204.4c0-.6.5-1.1,1.1-1.1s1,.5,1,1.1-.4,1.1-1,1.1-1.1-.5-1.1-1.1Z"/>
  </g>
  <g>
    <g>
      <g>
        <g>
          <path class="st0" d="M194.6,109.3h-2.3c-.4,0-.6-.6-.3-.9l.7-.6c.6-.5,1.3-.8,2-.8h2.3c.4,0,.6.6.3.9l-.7.6c-.6.5-1.3.8-2,.8"/>
          <path class="st0" d="M197.6,106l-2.3.2c-.4,0-.7-.6-.4-.9l.6-.6c.5-.5,1.2-.8,1.9-.9l2.3-.2c.4,0,.7.6.4.9l-.6.6c-.5.5-1.2.8-1.9.9"/>
          <path class="st0" d="M200.4,102.6l-2.3.3c-.4,0-.7-.5-.4-.8l.6-.7c.5-.6,1.1-.9,1.9-1l2.3-.3c.4,0,.7.5.4.8l-.6.7c-.5.6-1.1.9-1.9,1"/>
          <path class="st0" d="M202.9,99l-2.2.5c-.4,0-.7-.4-.5-.8l.5-.7c.4-.6,1.1-1,1.8-1.2l2.2-.5c.4,0,.7.5.5.8l-.5.7c-.4.6-1.1,1-1.8,1.2"/>
          <path class="st0" d="M205.2,95.2l-2.2.6c-.4.1-.8-.4-.5-.8l.5-.7c.4-.6,1-1.1,1.7-1.3l2.2-.6c.4-.1.8.4.5.8l-.5.7c-.4.6-1,1.1-1.7,1.3"/>
          <path class="st0" d="M207.2,91.2l-2.2.8c-.4.2-.8-.3-.6-.7l.4-.8c.4-.7.9-1.1,1.6-1.4l2.2-.8c.4-.2.8.3.6.7l-.4.8c-.4.7-.9,1.1-1.6,1.4"/>
          <path class="st0" d="M208.9,87.1l-2.1.9c-.4.2-.8-.3-.6-.7l.4-.8c.3-.7.8-1.2,1.5-1.5l2.1-.9c.4-.2.8.3.6.7l-.4.8c-.3.7-.8,1.2-1.5,1.5"/>
          <path class="st0" d="M210.3,83l-2,1.1c-.4.2-.8-.2-.7-.7l.3-.8c.3-.7.8-1.3,1.4-1.6l2-1.1c.4-.2.8.2.7.7l-.3.8c-.3.7-.8,1.3-1.4,1.6"/>
          <path class="st0" d="M211.5,78.7l-1.9,1.2c-.4.2-.9-.2-.7-.6l.3-.8c.2-.7.7-1.3,1.3-1.7l1.9-1.2c.4-.2.9.2.7.6l-.3.8c-.2.7-.7,1.3-1.3,1.7"/>
          <path class="st0" d="M212.3,74.3l-1.9,1.4c-.4.3-.9-.1-.8-.5l.2-.9c.2-.7.6-1.4,1.2-1.8l1.9-1.4c.4-.3.9.1.8.6l-.2.9c-.2.7-.6,1.4-1.2,1.8"/>
          <path class="st0" d="M212.8,69.9l-1.8,1.5c-.3.3-.9,0-.8-.5v-.9c.3-.7.6-1.4,1.2-1.9l1.8-1.5c.3-.3.9,0,.8.5v.9c-.3.7-.6,1.4-1.2,1.9"/>
          <path class="st0" d="M213.1,65.5l-1.7,1.6c-.3.3-.9,0-.8-.4v-.9c.1-.7.5-1.4,1-1.9l1.6-1.6c.3-.3.9,0,.8.4v.9c-.1.7-.5,1.4-1,1.9"/>
          <path class="st0" d="M213,61.1l-1.5,1.7c-.3.3-.9,0-.9-.4v-.9c0-.7.3-1.4.8-2l1.5-1.7c.3-.3.9,0,.9.4v.9c0,.7-.3,1.4-.8,2"/>
          <path class="st0" d="M212.6,56.7l-1.4,1.8c-.3.4-.9.1-.9-.3v-.9c0-.7.1-1.5.6-2l1.4-1.8c.3-.4.9-.1.9.3v.9c0,.7-.1,1.5-.6,2"/>
          <path class="st0" d="M211.9,52.3l-1.3,1.9c-.2.4-.8.2-.9-.3v-.9c-.2-.7,0-1.5.4-2.1l1.3-1.9c.2-.4.8-.2.9.3v.9c.2.7,0,1.5-.4,2.1"/>
          <path class="st0" d="M210.9,48l-1.1,2c-.2.4-.8.3-.9-.2l-.2-.9c-.1-.7,0-1.5.3-2.1l1.1-2c.2-.4.8-.3.9.2l.2.9c.1.7,0,1.5-.3,2.1"/>
          <path class="st0" d="M209.6,43.7l-1,2.1c-.2.4-.8.3-.9-.1l-.2-.8c-.2-.7-.1-1.5.2-2.1l1-2.1c.2-.4.8-.3.9.1l.2.8c.2.7.1,1.5-.2,2.1"/>
          <path class="st0" d="M208,39.6l-.9,2.1c-.2.4-.8.4-.9,0l-.3-.8c-.2-.7-.2-1.5,0-2.1l.9-2.1c.2-.4.8-.4.9,0l.3.8c.2.7.2,1.5,0,2.1"/>
          <path class="st0" d="M206.2,35.6l-.7,2.2c-.1.4-.8.4-.9,0l-.3-.8c-.3-.7-.3-1.4-.1-2.1l.7-2.2c.1-.4.8-.4.9,0l.3.8c.3.7.3,1.4,0,2.1"/>
          <path class="st0" d="M204,31.7l-.6,2.2c-.1.4-.7.5-.9,0l-.4-.8c-.3-.7-.4-1.4-.2-2.1l.6-2.2c.1-.4.7-.5.9,0l.4.8c.3.7.4,1.4.2,2.1"/>
          <path class="st0" d="M201.6,28l-.4,2.3c0,.4-.7.5-.9.1l-.4-.8c-.4-.6-.5-1.4-.4-2.1l.4-2.3c0-.4.7-.5.9-.1l.4.8c.4.6.5,1.4.4,2.1"/>
          <path class="st0" d="M199,24.5l-.2,2.3c0,.4-.7.6-.9.2l-.5-.7c-.4-.6-.6-1.3-.5-2.1l.2-2.3c0-.4.7-.6.9-.2l.5.7c.4.6.6,1.3.5,2.1"/>
          <path class="st0" d="M196.1,21.1v2.3c0,.4-.7.6-1,.3l-.5-.7c-.5-.6-.7-1.3-.7-2v-2.3c0-.4.7-.6,1-.3l.5.7c.5.6.7,1.3.7,2"/>
          <path class="st0" d="M193,18v2.3c0,.4-.5.7-.8.3l-.6-.6c-.5-.5-.8-1.2-.8-2v-2.3c0-.4.5-.7.8-.3l.6.6c.5.5.8,1.2.8,2"/>
          <path class="st0" d="M189.6,15.1l.2,2.3c0,.4-.5.7-.9.4l-.6-.6c-.5-.5-.9-1.2-1-1.9l-.2-2.3c0-.4.5-.7.9-.4l.6.6c.5.5.9,1.2,1,1.9"/>
          <path class="st0" d="M186.1,12.4l.4,2.3c0,.4-.5.7-.8.4l-.7-.6c-.6-.5-1-1.1-1.1-1.8l-.4-2.3c0-.4.5-.7.8-.4l.7.6c.6.5,1,1.1,1.1,1.8"/>
          <path class="st0" d="M182.4,10l.6,2.2c.1.4-.4.8-.8.5l-.7-.5c-.6-.4-1-1-1.2-1.8l-.6-2.2c-.1-.4.4-.8.8-.5l.7.5c.6.4,1,1.1,1.2,1.8"/>
          <path class="st0" d="M178.6,7.9l.7,2.2c.1.4-.4.8-.8.6l-.7-.5c-.6-.4-1.1-1-1.3-1.7l-.7-2.2c-.1-.4.4-.8.8-.6l.7.5c.6.4,1.1,1,1.3,1.7"/>
          <path class="st0" d="M174.6,6l.9,2.1c.2.4-.3.8-.7.6l-.8-.4c-.7-.3-1.2-.9-1.4-1.6l-.9-2.1c-.2-.4.3-.8.7-.6l.8.4c.7.3,1.2.9,1.4,1.6"/>
          <path class="st0" d="M170.5,4.4l1,2.1c.2.4-.3.8-.7.7l-.8-.3c-.7-.3-1.2-.8-1.5-1.5l-1-2.1c-.2-.4.3-.8.7-.7l.8.3c.7.3,1.2.8,1.5,1.5"/>
          <path class="st0" d="M166.3,3.2l1.1,2c.2.4-.2.9-.6.7l-.8-.3c-.7-.2-1.3-.7-1.6-1.3l-1.1-2c-.2-.4.2-.9.6-.7l.8.3c.7.2,1.3.7,1.6,1.3"/>
          <path class="st0" d="M162,2.2l1.3,1.9c.2.4-.1.9-.6.7l-.8-.2c-.7-.2-1.3-.6-1.7-1.2l-1.3-1.9c-.2-.4.1-.9.6-.7l.8.2c.7.2,1.3.6,1.7,1.2"/>
          <path class="st0" d="M157.6,1.5l1.4,1.8c.3.4,0,.9-.5.8l-.9-.2c-.7-.1-1.4-.5-1.8-1.1l-1.4-1.8c-.3-.3,0-.9.5-.8l.9.2c.7.1,1.4.5,1.8,1.1"/>
          <path class="st0" d="M153.2,1.1l1.5,1.7c.3.3,0,.9-.5.8h-.9c-.7-.2-1.4-.5-1.9-1.1l-1.5-1.7c-.3-.3,0-.9.5-.8h.9c.7.2,1.4.5,1.9,1.1"/>
          <path class="st0" d="M148.8,1l1.7,1.6c.3.3,0,.9-.4.8h-.9c-.7,0-1.4-.4-1.9-.9l-1.7-1.6c-.3-.3,0-.9.4-.8h.9c.7,0,1.4.4,1.9.9"/>
          <path class="st0" d="M144.4,1.3l1.8,1.5c.3.3.1.9-.3.9h-.9c-.7,0-1.4-.2-2-.7l-1.8-1.5c-.3-.3-.1-.9.3-.9h.9c.7,0,1.4.2,2,.7"/>
          <path class="st0" d="M140.1,1.8l1.9,1.4c.4.3.2.9-.3.9h-.9c-.7.1-1.5,0-2-.5l-1.9-1.4c-.4-.3-.2-.9.3-.9h.9c.7-.1,1.5,0,2,.5"/>
          <path class="st0" d="M135.7,2.6l1.9,1.2c.4.2.2.8-.2.9h-.9c-.7.2-1.5.1-2.1-.3l-1.9-1.2c-.4-.2-.2-.8.2-.9h.9c.7-.2,1.5-.1,2.1.3"/>
          <path class="st0" d="M131.5,3.8l2,1.1c.4.2.3.8-.2.9l-.8.2c-.7.2-1.5,0-2.1-.3l-2-1.1c-.4-.2-.3-.8.2-.9l.8-.2c.7-.2,1.5,0,2.1.3"/>
          <path class="st0" d="M127.3,5.2l2.1.9c.4.2.3.8,0,.9l-.8.3c-.7.2-1.5.2-2.1-.1l-2.1-.9c-.4-.2-.3-.8,0-.9l.8-.3c.7-.2,1.5-.2,2.1.1"/>
          <path class="st0" d="M123.3,7l2.2.8c.4.2.4.8,0,.9l-.8.3c-.7.3-1.4.3-2.1,0l-2.2-.8c-.4-.2-.4-.8,0-.9l.8-.3c.7-.3,1.4-.3,2.1,0"/>
          <path class="st0" d="M119.4,9l2.2.6c.4.1.4.8,0,.9l-.8.4c-.7.3-1.4.4-2.1.2l-2.2-.6c-.4-.1-.4-.8,0-.9l.8-.4c.7-.3,1.4-.4,2.1-.2"/>
          <path class="st0" d="M115.6,11.3l2.2.5c.4,0,.5.7,0,.9l-.8.4c-.7.4-1.4.5-2.1.3l-2.2-.5c-.4,0-.5-.7-.1-.9l.8-.4c.7-.4,1.4-.5,2.1-.3"/>
          <path class="st0" d="M112,13.8l2.3.3c.4,0,.5.7.2.9l-.7.5c-.6.4-1.4.6-2.1.5l-2.3-.3c-.4,0-.5-.7-.2-.9l.7-.5c.6-.4,1.4-.6,2.1-.5"/>
          <path class="st0" d="M108.6,16.6l2.3.2c.4,0,.6.6.2.9l-.7.5c-.6.5-1.3.7-2,.6l-2.3-.2c-.4,0-.6-.6-.2-.9l.7-.5c.6-.4,1.3-.7,2-.6"/>
          <path class="st0" d="M105.4,19.6h2.3c.4,0,.6.6.3.9l-.7.6c-.6.5-1.3.8-2,.8h-2.3c-.4,0-.6-.6-.3-.9l.7-.6c.6-.5,1.3-.8,2-.8"/>
          <path class="st0" d="M102.4,22.9l2.3-.2c.4,0,.7.6.4.9l-.6.6c-.5.5-1.2.8-1.9.9l-2.3.2c-.4,0-.7-.6-.4-.9l.6-.6c.5-.5,1.2-.8,1.9-.9"/>
          <path class="st0" d="M99.6,26.3l2.3-.3c.4,0,.7.5.4.8l-.6.7c-.5.6-1.1.9-1.9,1l-2.3.3c-.4,0-.7-.5-.4-.8l.6-.7c.5-.6,1.1-.9,1.9-1"/>
          <path class="st0" d="M97.1,30l2.2-.5c.4,0,.7.5.5.8l-.5.7c-.4.6-1.1,1-1.8,1.2l-2.2.5c-.4,0-.7-.5-.5-.8l.5-.7c.4-.6,1.1-1,1.8-1.2"/>
          <path class="st0" d="M94.8,33.8l2.2-.6c.4-.1.8.4.5.8l-.5.7c-.4.6-1,1.1-1.7,1.3l-2.2.6c-.4.1-.8-.4-.5-.8l.5-.7c.4-.6,1-1.1,1.7-1.3"/>
          <path class="st0" d="M92.8,37.7l2.2-.8c.4-.2.8.3.6.7l-.4.8c-.4.7-.9,1.1-1.6,1.4l-2.2.8c-.4.2-.8-.3-.6-.7l.4-.8c.4-.7.9-1.1,1.6-1.4"/>
          <path class="st0" d="M91.1,41.8l2.1-.9c.4-.2.8.3.6.7l-.4.8c-.3.7-.8,1.2-1.5,1.5l-2.1.9c-.4.2-.8-.3-.6-.7l.4-.8c.3-.7.8-1.2,1.5-1.5"/>
          <path class="st0" d="M89.7,46l2-1.1c.4-.2.8.2.7.7l-.3.8c-.3.7-.8,1.3-1.4,1.6l-2,1.1c-.4.2-.8-.2-.7-.7l.3-.8c.3-.7.8-1.3,1.4-1.6"/>
          <path class="st0" d="M88.5,50.3l1.9-1.2c.4-.2.9.2.7.6l-.3.8c-.2.7-.7,1.3-1.3,1.7l-1.9,1.2c-.4.2-.9-.2-.7-.6l.3-.8c.2-.7.7-1.3,1.3-1.7"/>
          <path class="st0" d="M87.7,54.6l1.9-1.4c.4-.3.9.1.8.6l-.2.9c-.2.7-.6,1.4-1.2,1.8l-1.9,1.4c-.4.3-.9-.1-.8-.5l.2-.9c.2-.7.6-1.4,1.2-1.8"/>
          <path class="st0" d="M87.2,59l1.8-1.5c.3-.3.9,0,.8.5v.9c-.3.7-.6,1.4-1.2,1.9l-1.8,1.5c-.3.3-.9,0-.8-.5v-.9c.3-.7.6-1.4,1.2-1.9"/>
          <path class="st0" d="M86.9,63.4l1.6-1.6c.3-.3.9,0,.8.4v.9c-.1.7-.5,1.4-1,1.9l-1.7,1.6c-.3.3-.9,0-.8-.4v-.9c.1-.7.5-1.4,1-1.9"/>
          <path class="st0" d="M87,67.9l1.5-1.7c.3-.3.9,0,.9.4v.9c0,.7-.3,1.4-.8,2l-1.5,1.7c-.3.3-.9,0-.9-.4v-.9c0-.7.3-1.4.8-2"/>
          <path class="st0" d="M87.4,72.3l1.4-1.8c.3-.3.9-.1.9.3v.9c0,.7-.1,1.5-.6,2l-1.4,1.8c-.3.3-.9.1-.9-.3v-.9c0-.7.1-1.5.6-2"/>
          <path class="st0" d="M88.1,76.6l1.3-1.9c.2-.4.8-.2.9.3v.9c.2.7,0,1.5-.4,2.1l-1.3,1.9c-.2.4-.8.2-.9-.3v-.9c-.2-.7,0-1.5.4-2.1"/>
          <path class="st0" d="M89.1,81l1.1-2c.2-.4.8-.3.9.2l.2.9c.1.7,0,1.5-.3,2.1l-1.1,2c-.2.4-.8.3-.9-.2l-.2-.9c-.1-.7,0-1.5.3-2.1"/>
          <path class="st0" d="M90.4,85.2l1-2.1c.2-.4.8-.3.9.1l.2.8c.2.7.1,1.5-.2,2.1l-1,2.1c-.2.4-.8.3-.9-.1l-.2-.8c-.2-.7-.1-1.5.2-2.1"/>
          <path class="st0" d="M92,89.3l.9-2.1c.2-.4.8-.4.9,0l.3.8c.2.7.2,1.5,0,2.1l-.9,2.1c-.2.4-.8.4-.9,0l-.3-.8c-.2-.7-.2-1.5,0-2.1"/>
          <path class="st0" d="M93.8,93.3l.7-2.2c.1-.4.8-.4.9,0l.3.8c.3.7.3,1.4.1,2.1l-.7,2.2c-.1.4-.8.4-.9,0l-.3-.8c-.3-.7-.3-1.4-.1-2.1"/>
          <path class="st0" d="M96,97.2l.6-2.2c.1-.4.7-.5.9,0l.4.8c.3.7.4,1.4.2,2.1l-.6,2.2c-.1.4-.7.5-.9,0l-.4-.8c-.3-.7-.4-1.4-.2-2.1"/>
          <path class="st0" d="M98.4,100.9l.4-2.3c0-.4.7-.5.9-.1l.4.8c.4.6.5,1.4.4,2.1l-.4,2.3c0,.4-.7.5-.9.1l-.4-.8c-.4-.6-.5-1.4-.4-2.1"/>
          <path class="st0" d="M101,104.5l.2-2.3c0-.4.7-.6.9-.2l.5.7c.4.6.6,1.3.5,2.1l-.2,2.3c0,.4-.7.6-.9.2l-.5-.7c-.4-.6-.6-1.3-.5-2.1"/>
          <path class="st0" d="M103.9,107.8v-2.3c0-.4.7-.6,1-.3l.5.7c.5.6.7,1.3.7,2v2.3c0,.4-.7.6-1,.3l-.5-.7c-.5-.6-.7-1.3-.7-2"/>
          <path class="st0" d="M107,110.9v-2.3c0-.4.5-.7.8-.3l.6.6c.5.5.8,1.2.8,2v2.3c0,.4-.5.7-.8.3l-.6-.6c-.5-.5-.8-1.2-.8-2"/>
          <path class="st0" d="M110.4,113.8l-.2-2.3c0-.4.5-.7.9-.4l.6.6c.5.5.9,1.2,1,1.9l.2,2.3c0,.4-.5.7-.9.4l-.6-.6c-.5-.5-.9-1.2-1-1.9"/>
          <path class="st0" d="M113.9,116.5l-.4-2.3c0-.4.5-.7.8-.4l.7.6c.6.5,1,1.1,1.1,1.8l.4,2.3c0,.4-.5.7-.8.4l-.7-.6c-.6-.5-1-1.1-1.1-1.8"/>
          <path class="st0" d="M117.6,118.9l-.6-2.2c-.1-.4.4-.8.8-.5l.7.5c.6.4,1,1,1.2,1.8l.6,2.2c.1.4-.4.8-.8.5l-.7-.5c-.6-.4-1-1-1.2-1.8"/>
          <path class="st0" d="M121.4,121l-.7-2.2c-.1-.4.4-.8.8-.6l.7.5c.6.4,1.1,1,1.3,1.7l.7,2.2c.1.4-.4.8-.8.6l-.7-.5c-.6-.4-1.1-1-1.3-1.7"/>
          <path class="st0" d="M125.4,122.9l-.9-2.1c-.2-.4.3-.8.7-.6l.8.4c.7.3,1.2.9,1.4,1.6l.9,2.1c.2.4-.3.8-.7.6l-.8-.4c-.7-.3-1.2-.9-1.4-1.6"/>
          <path class="st0" d="M129.5,124.5l-1-2.1c-.2-.4.3-.8.7-.7l.8.3c.7.3,1.2.8,1.5,1.5l1,2.1c.2.4-.3.8-.7.7l-.8-.3c-.7-.3-1.2-.8-1.5-1.5"/>
          <path class="st0" d="M133.7,125.8l-1.1-2c-.2-.4.2-.9.6-.7l.8.3c.7.2,1.3.7,1.6,1.3l1.1,2c.2.4-.2.9-.6.7l-.8-.3c-.7-.2-1.3-.7-1.6-1.3"/>
          <path class="st0" d="M138,126.8l-1.3-1.9c-.2-.4.1-.9.6-.7l.8.2c.7.2,1.3.6,1.7,1.2l1.3,1.9c.2.4-.1.9-.6.7l-.8-.2c-.7-.2-1.3-.6-1.7-1.2"/>
          <path class="st0" d="M142.4,127.5l-1.4-1.8c-.3-.4,0-.9.5-.8l.9.2c.7.1,1.4.5,1.8,1.1l1.4,1.8c.3.3,0,.9-.5.8l-.9-.2c-.7-.1-1.4-.5-1.8-1.1"/>
          <path class="st0" d="M146.8,127.8l-1.5-1.7c-.3-.3,0-.9.5-.8h.9c.7.2,1.4.5,1.9,1.1l1.5,1.7c.3.3,0,.9-.5.8h-.9c-.7-.2-1.4-.5-1.9-1.1"/>
          <path class="st0" d="M151.2,127.9l-1.6-1.6c-.3-.3,0-.9.4-.8h.9c.7,0,1.4.4,1.9.9l1.6,1.6c.3.3,0,.9-.4.8h-.9c-.7,0-1.4-.4-1.9-.9"/>
          <path class="st0" d="M155.6,127.7l-1.8-1.5c-.3-.3-.1-.9.3-.9h.9c.7,0,1.4.2,2,.7l1.8,1.5c.3.3.1.9-.4.9h-.9c-.7,0-1.4-.2-2-.7"/>
          <path class="st0" d="M159.9,127.1l-1.9-1.4c-.4-.3-.2-.9.3-.9h.9c.7-.1,1.5,0,2,.5l1.9,1.4c.4.3.2.9-.3.9h-.9c-.7.1-1.5,0-2-.5"/>
          <path class="st0" d="M164.3,126.3l-1.9-1.2c-.4-.2-.2-.8.2-.9h.9c.7-.2,1.5-.1,2.1.3l1.9,1.2c.4.2.2.8-.2.9h-.9c-.7.2-1.5.1-2.1-.3"/>
          <path class="st0" d="M168.5,125.1l-2-1.1c-.4-.2-.3-.8.2-.9l.8-.2c.7-.2,1.5,0,2.1.3l2,1.1c.4.2.3.8-.2.9l-.9.2c-.7.2-1.5,0-2.1-.3"/>
          <path class="st0" d="M172.7,123.7l-2.1-.9c-.4-.2-.3-.8,0-.9l.8-.3c.7-.2,1.5-.2,2.1.1l2.1.9c.4.2.3.8,0,.9l-.8.3c-.7.2-1.5.2-2.1-.1"/>
          <path class="st0" d="M176.7,122l-2.2-.8c-.4-.1-.4-.8,0-.9l.8-.3c.7-.3,1.4-.3,2.1,0l2.2.8c.4.2.4.8,0,.9l-.8.3c-.7.3-1.4.3-2.1,0"/>
          <path class="st0" d="M180.6,119.9l-2.2-.6c-.4-.1-.4-.8,0-.9l.8-.4c.7-.3,1.4-.4,2.1-.2l2.2.6c.4.1.4.8,0,.9l-.8.4c-.7.3-1.4.4-2.1.2"/>
          <path class="st0" d="M184.4,117.7l-2.2-.5c-.4,0-.5-.7-.1-.9l.8-.4c.7-.4,1.4-.5,2.1-.3l2.2.5c.4,0,.5.7.1.9l-.8.4c-.7.4-1.4.5-2.1.3"/>
          <path class="st0" d="M188,115.1l-2.3-.3c-.4,0-.5-.7-.2-.9l.7-.5c.6-.4,1.4-.6,2.1-.5l2.3.3c.4,0,.5.7.2.9l-.7.5c-.6.4-1.4.6-2.1.5"/>
          <path class="st0" d="M191.4,112.3l-2.3-.2c-.4,0-.6-.6-.2-.9l.7-.5c.6-.4,1.3-.7,2-.6l2.3.2c.4,0,.6.6.2.9l-.7.5c-.6.4-1.3.7-2,.6"/>
        </g>
        <polygon class="st1" points="144.1 14.5 147.8 11.9 146.3 7.5 150 10.2 153.6 7.5 152.2 11.8 155.9 14.5 151.4 14.5 150 18.8 148.6 14.5 144.1 14.5"/>
        <polygon class="st1" points="125.6 20.6 127.9 16.7 125 13.3 129.3 14.3 131.7 10.4 132 15 136.4 16 132.3 17.7 132.6 22.3 129.7 18.8 125.6 20.6"/>
        <polygon class="st1" points="110.7 33.3 111.5 28.9 107.4 26.8 111.9 26.1 112.6 21.6 114.6 25.7 119.1 24.9 115.9 28.1 117.9 32.2 113.9 30.1 110.7 33.3"/>
        <polygon class="st1" points="101.9 50.8 100.9 46.4 96.3 46.1 100.2 43.7 99.1 39.3 102.5 42.3 106.4 39.9 104.6 44 108.1 47 103.6 46.6 101.9 50.8"/>
        <polygon class="st1" points="100.4 70.4 97.7 66.7 93.4 68.1 96.1 64.5 93.4 60.8 97.7 62.2 100.3 58.5 100.3 63.1 104.6 64.5 100.4 65.8 100.4 70.4"/>
        <polygon class="st1" points="106.4 89.1 102.6 86.7 99.1 89.7 100.2 85.3 96.3 82.9 100.8 82.5 101.9 78.1 103.6 82.3 108.1 81.9 104.7 84.9 106.4 89.1"/>
        <polygon class="st1" points="119.1 104 114.6 103.3 112.6 107.3 111.9 102.9 107.4 102.2 111.4 100.1 110.7 95.6 113.9 98.8 117.9 96.7 115.9 100.8 119.1 104"/>
        <polygon class="st1" points="136.5 112.9 132.1 113.9 131.7 118.5 129.4 114.6 125 115.7 127.9 112.3 125.5 108.4 129.7 110.1 132.6 106.6 132.3 111.2 136.5 112.9"/>
        <polygon class="st1" points="155.9 114.4 152.2 117.1 153.7 121.4 150 118.7 146.4 121.4 147.8 117.1 144.1 114.4 148.6 114.5 150 110.1 151.4 114.4 155.9 114.4"/>
        <polygon class="st1" points="174.4 108.3 172.1 112.2 175 115.7 170.7 114.6 168.3 118.5 168 114 163.6 112.9 167.7 111.2 167.4 106.6 170.3 110.1 174.4 108.3"/>
        <polygon class="st1" points="189.3 95.6 188.5 100.1 192.6 102.1 188.1 102.8 187.4 107.3 185.4 103.3 180.9 104 184.1 100.8 182.1 96.8 186.1 98.8 189.3 95.6"/>
        <polygon class="st1" points="198.1 78.1 199.1 82.5 203.7 82.9 199.8 85.2 200.9 89.6 197.5 86.7 193.6 89.1 195.4 84.9 191.9 81.9 196.4 82.3 198.1 78.1"/>
        <polygon class="st1" points="199.6 58.5 202.3 62.2 206.6 60.8 203.9 64.4 206.6 68.1 202.3 66.7 199.7 70.4 199.7 65.9 195.4 64.5 199.6 63.1 199.6 58.5"/>
        <polygon class="st1" points="193.6 39.9 197.4 42.2 200.9 39.3 199.8 43.7 203.7 46 199.2 46.4 198.1 50.8 196.4 46.6 191.9 47 195.3 44.1 193.6 39.9"/>
        <polygon class="st1" points="180.9 24.9 185.4 25.7 187.4 21.6 188.1 26.1 192.6 26.8 188.6 28.8 189.3 33.3 186.1 30.1 182.1 32.2 184.1 28.2 180.9 24.9"/>
        <polygon class="st1" points="163.5 16 167.9 15 168.3 10.5 170.6 14.3 175 13.2 172.1 16.7 174.5 20.6 170.3 18.8 167.4 22.3 167.7 17.8 163.5 16"/>
      </g>
      <path class="st0" d="M150,107.5c-23.6,0-42.8-19.3-42.8-43.1s19.2-43.1,42.8-43.1,42.8,19.3,42.8,43.1-19.2,43.1-42.8,43.1M150,22.6c-22.9,0-41.6,18.8-41.6,41.8s18.6,41.8,41.6,41.8,41.5-18.8,41.5-41.8-18.6-41.8-41.5-41.8"/>
      <g>
        <g>
          <path class="st0" d="M146.2,88.9c0,0-.1.2-.1.3-.1,1,.4,1.9,1.5,2.7.4.2,1.3.8,3,1.8,1.1.6,1.1,1.6,0,3,.2.2.5.5.8.7,1-.7,1.6-1.6,2-2.5.7-1.6-.2-2.8-2.7-3.7-1-.4-1.6-.7-1.7-1.1,0-.2,0-.4.1-.5-1.2-.2-2.1-.4-2.8-.7Z"/>
          <path class="st0" d="M150.6,89.8l-1.2-.2c0,.5.1.9.6,1,.6,0,.5-.4.5-.8Z"/>
          <path class="st0" d="M148.8,59.3l.2,14.3,1.8.6.3-14.9c1.2-.5,2-1.6,2-3s-1.2-2.9-2.7-3.2c-.2,0-.3,0-.5,0,0,0,0,0,0,0s0,0,0,0c0,0,0,0-.1,0-.2,0-.3,0-.5,0-.1,0-.2,0-.3,0,0,0-.1,0-.2,0-.1,0-.3.1-.4.2,0,0,0,0,0,0-1,.6-1.6,1.6-1.6,2.8s.8,2.5,2,3Z"/>
          <polygon class="st0" points="150.8 78.4 149.2 77.9 149.2 80.4 150.7 80.8 150.8 78.4"/>
          <path class="st0" d="M153,75.6l-4.9-1.4c-2.4-.7-4.2-1.6-5.4-2.7-1-1.1-1.2-2-.7-2.8.5-.7,1.3-1,2.4-.6,2.6.7,3.8.8,3.8.1,0-.6-.4-1.4-1.2-2.3-.7-.9-1.9-1.4-3.3-1.5-1.4,0-2.7.8-3.9,2.2-1.3,1.6-1.5,3.4-.5,5.3,1.3,2,3.4,3.4,6.4,4.5l6.6,1.7c1.5.4,2.2.7,2.2,1.2,0,.3-1,.9-3.2,1.7.5.2,1,.3,1.4.5.4.2.8.3,1.2.5s.7.3.9.5c1.6-.8,2.6-1.7,2.9-2.9.3-1.5-1.2-2.8-4.5-3.9Z"/>
          <path class="st0" d="M160.4,66.6c-1.1-1.4-2.4-2.1-3.9-2.2-1.5.1-2.6.6-3.3,1.5-.7.9-1.1,1.6-1.2,2.3,0,.6,1.2.6,3.8-.1,1.1-.3,1.9-.1,2.4.6.5.8.3,1.7-.7,2.8-1.2,1.1-3,2-5.4,2.7l-.6.2c1.5.3,3,.8,4.4,1.4,0,0,0,0,0,0,2.2-1,3.9-2.3,4.9-3.9.9-2,.7-3.7-.5-5.3Z"/>
          <path class="st0" d="M154.7,83.1c-1-.7-2.8-1.4-5.3-2.2-2.6-.8-3.6-1.2-3.6-1.6,0-.6.6-.8,2.2-1.2l.7-.2c-1.5-.3-2.9-.7-4.2-1.2-1.5.8-2.1,1.7-1.8,2.8.3,1.1,1.3,2.1,3,2.9,2,.8,3.8,1.4,5.5,1.9,1.7.5,2.3.9,2.3,1.3,0,.3-.7.7-2,1.1,1.5.2,2.5.7,3,1.5,1.2-.5,1.8-1.3,1.8-2.3,0-1.2-.6-2.1-1.6-2.8Z"/>
          <path class="st0" d="M149.5,98.4c-.1,1,.1,4.8.5,5.6.5-1.2.4-3.7.3-5.1l-.8-.5Z"/>
          <path class="st0" d="M149.4,93.8l-.3-.2c-1-.6-1.5-1-1.7-1.1-.8.7-.9,1.5-.5,2.5.7,1.8,3,3.6,6.9,5.5-4.3-3.4-5.8-5.6-4.5-6.7Z"/>
          <path class="st0" d="M150,96c.6-.8.8-1.5-.2-2.1,0,.7-.6,1.3.2,2.1Z"/>
          <polygon class="st0" points="150.7 84.8 149.3 84.4 149.4 86.3 150.7 86.6 150.7 84.8"/>
          <path class="st0" d="M150.5,87.1c-2.4-.5-3.7-.9-3.7-1.3,0-.4.3-.5,1-.8.7-.4,1.1-.6,1.3-.6l-3.4-1.3s0,0-.1,0c0,0,0,0,0,0,0,0,0,0,0,0-1,.7-1.5,1.6-1.5,2.8,0,1.2.9,2,2.4,2.6.6.2,1.2.4,2,.5l2.3.4c.7.2.9.4.8.8,0,.2-.3.4-.6.6.2,0,.3.1.5.2s.3.1.5.2c.1,0,.3.1.4.2.1,0,.2.2.3.2,0,0,.2.1.3.3,1-.8,1.4-1.7,1.2-2.6,0-1-1.3-1.7-3.6-2.1Z"/>
        </g>
        <g>
          <path class="st0" d="M142.2,42c0-2.9,1.5-5.4,3.8-6.7-1.4,1.1-2.2,2.8-2.2,4.8,0,3.4,2.8,6.2,6.1,6.2,3.4,0,6.1-2.8,6.1-6.2,0-1.9-.9-3.6-2.2-4.8,2.3,1.4,3.8,3.9,3.8,6.7,0,4.3-3.5,7.8-7.7,7.8-4.3,0-7.7-3.5-7.7-7.8"/>
          <polygon class="st0" points="146.4 32.8 148.6 31.1 147.7 28.5 150 30.1 152.2 28.5 151.4 31.1 153.6 32.8 150.9 32.8 150 35.5 149.1 32.8 146.4 32.8"/>
        </g>
        <path class="st0" d="M143.6,57.2c1.6-11.4-18.9-5-30.5-7.2.4,8.5,20.5,2.3,25.4,4.3-4.8.6-15.2,2.1-22.5,2.5,0,7.6,19.1-1.3,23.1,0-5,1.6-9.2,3.4-18,5.4,2.8,7,14.9-3.2,18.3-2.9-4.3,2.5-6.5,4.3-12.7,7.1,3.9,3.5,10.3-3,12.5-4.2.6-.4,1.4-1.1,2.1-.5h0c1.8,1.2,5,2.1,5.9.4-1.3,0-4.4-1.7-3.7-4.6Z"/>
        <path class="st0" d="M156.4,57.2c-1.6-11.4,18.9-5,30.5-7.2-.4,8.5-20.5,2.3-25.4,4.3,4.8.6,15.2,2.1,22.5,2.5,0,7.6-19.1-1.3-23.1,0,5,1.6,9.2,3.4,18,5.4-2.8,7-14.9-3.2-18.3-2.9,4.3,2.5,6.5,4.3,12.7,7.1-3.9,3.5-10.3-3-12.5-4.2-.6-.4-1.4-1.1-2.1-.5h0c-1.8,1.2-5,2.1-5.9.4,1.3,0,4.4-1.7,3.7-4.6Z"/>
      </g>
    </g>
    <g>
      <path class="st0" d="M5.3,150.1H0v-3.8h15.3v3.8h-5.4v16.2h-4.5v-16.2Z"/>
      <path class="st0" d="M14.8,164c0-1.6,1.1-2.8,2.7-2.8s2.6,1.1,2.6,2.8-1.1,2.7-2.7,2.7-2.6-1.2-2.6-2.7Z"/>
      <path class="st0" d="M37.5,165.8c-.8.4-2.7.9-5.1.9-6.9,0-10.4-4.3-10.4-10s4.8-10.6,10.9-10.6,4.1.5,4.9.9l-.9,3.6c-.9-.4-2.2-.7-3.8-.7-3.6,0-6.4,2.2-6.4,6.6s2.4,6.5,6.4,6.5,2.9-.3,3.8-.7l.7,3.5Z"/>
      <path class="st0" d="M40,164c0-1.6,1.1-2.8,2.7-2.8s2.6,1.1,2.6,2.8-1.1,2.7-2.7,2.7-2.6-1.2-2.6-2.7Z"/>
      <path class="st0" d="M54.3,161.7c1.2.6,3.1,1.2,5,1.2s3.2-.9,3.2-2.2-.9-2-3.3-2.8c-3.3-1.2-5.5-3-5.5-5.9s2.8-6,7.5-6,3.9.5,5.1,1l-1,3.7c-.8-.4-2.2-1-4.2-1s-2.9.9-2.9,1.9,1.1,1.8,3.7,2.8c3.5,1.3,5.2,3.2,5.2,6s-2.6,6.2-8,6.2-4.5-.6-5.6-1.2l.9-3.7Z"/>
      <path class="st0" d="M74.7,161.2l-1.4,5.1h-4.7l6.1-20h5.9l6.2,20h-4.8l-1.5-5.1h-5.7ZM79.8,157.8l-1.2-4.3c-.4-1.2-.7-2.7-1-3.9h0c-.3,1.2-.6,2.7-.9,3.9l-1.2,4.3h4.4Z"/>
      <path class="st0" d="M105.3,165.4c-1.4.5-4,1.1-6.6,1.1s-6.3-.9-8.1-2.7c-1.8-1.7-2.8-4.3-2.8-7.3,0-6.7,4.8-10.5,11.4-10.5s4.5.5,5.5,1l-.9,3.6c-1.1-.5-2.5-.9-4.6-.9-3.8,0-6.6,2.1-6.6,6.5s2.6,6.6,6.3,6.6,1.9-.1,2.2-.3v-4.2h-3.1v-3.5h7.4v10.6ZM96.2,141.4c0,.7.5,1.4,1.7,1.4s1.7-.7,1.9-1.4h2.3c0,2.2-1.3,3.7-4.1,3.7s-4.1-1.6-4.1-3.7h2.4Z"/>
      <path class="st0" d="M108.9,146.3h4.5v16.2h7.9v3.8h-12.4v-20Z"/>
      <path class="st0" d="M128.5,146.3v20h-4.5v-20h4.5Z"/>
      <path class="st0" d="M132.4,146.3h4.5v8.9h0c.4-.8.9-1.5,1.4-2.2l4.5-6.7h5.5l-6.6,8.5,6.9,11.5h-5.3l-4.9-8.7-1.7,2.1v6.5h-4.5v-20Z"/>
      <path class="st0" d="M156.5,146.6c1.2-.2,3.6-.4,5.8-.4s4.4.3,5.9,1.1c1.4.7,2.4,2.1,2.4,3.9s-1,3.4-3.3,4.3h0c2.3.7,4,2.4,4,5s-.8,3.2-2.1,4.3c-1.4,1.2-3.9,1.8-7.8,1.8s-3.9-.1-4.9-.3v-19.7ZM160.9,154.3h1.5c2.4,0,3.6-1,3.6-2.5s-1.2-2.3-3.2-2.3-1.5,0-1.9.1v4.7ZM160.9,163.2c.4,0,1,0,1.7,0,2,0,3.8-.8,3.8-2.9s-1.8-2.8-4-2.8h-1.5v5.6Z"/>
      <path class="st0" d="M178.8,161.2l-1.4,5.1h-4.7l6.1-20h5.9l6.2,20h-4.8l-1.5-5.1h-5.7ZM183.9,157.8l-1.2-4.3c-.4-1.2-.7-2.7-1-3.9h0c-.3,1.2-.6,2.7-.9,3.9l-1.2,4.3h4.4Z"/>
      <path class="st0" d="M193.6,146.3h4.5v8.9h0c.4-.8.9-1.5,1.4-2.2l4.5-6.7h5.5l-6.6,8.5,6.9,11.5h-5.3l-4.9-8.7-1.7,2.1v6.5h-4.5v-20Z"/>
      <path class="st0" d="M216.7,161.2l-1.4,5.1h-4.7l6.1-20h5.9l6.2,20h-4.8l-1.5-5.1h-5.7ZM221.8,157.8l-1.2-4.3c-.4-1.2-.7-2.7-1-3.9h0c-.3,1.2-.6,2.7-.9,3.9l-1.2,4.3h4.4Z"/>
      <path class="st0" d="M231.5,166.4v-20h5.3l4.1,7.3c1.2,2.1,2.4,4.6,3.2,6.9h0c-.3-2.6-.4-5.4-.4-8.4v-5.9h4.1v20h-4.7l-4.3-7.7c-1.2-2.1-2.5-4.7-3.5-7.1h0c.1,2.7.2,5.5.2,8.8v6h-4.1Z"/>
      <path class="st0" d="M251.8,146.3h4.5v16.2h7.9v3.8h-12.4v-20Z"/>
      <path class="st0" d="M271.4,146.3v20h-4.5v-20h4.5Z"/>
      <path class="st0" d="M292,165.4c-1.4.5-4,1.1-6.6,1.1s-6.3-.9-8.1-2.7c-1.8-1.7-2.8-4.3-2.8-7.3,0-6.7,4.8-10.5,11.4-10.5s4.5.5,5.5,1l-.9,3.6c-1.1-.5-2.5-.9-4.6-.9-3.8,0-6.6,2.1-6.6,6.5s2.6,6.6,6.3,6.6,1.9-.1,2.2-.3v-4.2h-3.1v-3.5h7.4v10.6ZM282.8,141.4c0,.7.5,1.4,1.7,1.4s1.7-.7,1.9-1.4h2.3c0,2.2-1.3,3.7-4.1,3.7s-4.1-1.6-4.1-3.7h2.4Z"/>
      <path class="st0" d="M300,146.3v20h-4.5v-20h4.5Z"/>
    </g>
  </g>
</svg>