<?xml version="1.0" encoding="UTF-8"?>
<svg id="icon_logo" xmlns="http://www.w3.org/2000/svg" version="1.1" viewBox="0 0 44 44">
  <g>
    <!-- Sol insan figürü (darkGreen #0E4D41) -->
    <circle fill="#0E4D41" cx="8.4" cy="7.5" r="4.6"/>
    <path fill="#0E4D41" d="M27.2,23.7c-.8.9-1.6,1.6-2.6,2.2-8.8,5.9-15.1-5.2-16.7-1.3-.3.6-.3,1.3-.1,1.9.5,1.8,1.2,3.6,2,5.2,2,3.8,4.9,7,8.5,9.4-6.1-.5-11.5-3.8-14.8-8.6-2.2-3.2-3.5-7.2-3.5-11.4s0-.6,0-.9h0c0-.4,0-.7,0-1,.2-2,1.3-3.9,3.2-4.9,1.8-1,1.9-.7,3-.7,7.6.1,9.6,11.4,18.6,10.4,1.1-.1,1.6,0,2.4-.2h0Z"/>
    
    <!-- Sağ insan figürü (green #35BFA3) -->
    <path fill="#35BFA3" d="M36.2,7.8h0c0,2.6-2,4.6-4.6,4.6s-4.6-2-4.6-4.6,2-4.6,4.6-4.6,1.4.2,2,.5c.5-.5,1.1-.7,1.8-.7,1.4,0,2.4,1.1,2.4,2.4s-.7,2-1.6,2.3Z"/>
    <path fill="#35BFA3" d="M33.3,23.6c.3-1.5-.8-2.6-2.3-2.2-.7.2-1.4.6-2.1.8-1.8.6-3.6.8-5.5.5s-3.7-1.1-5.2-2.2c-.4-.3-1-.8,0-.8,2.6,0,5.2-.8,7.3-2.3.9-.7,1.6-1.5,2.6-2.2,1.7-1.2,3.7-1.8,5.8-1.7,2.6,0,5.3,1.5,6.2,4.1.4,1,.4,2.1.4,3.2,0,4-1.2,8.1-3.3,11.3-3.2,4.7-8.7,8.5-14.6,8.9-.2-.1.4-.5.5-.6,5.5-3.9,9.3-10,10.3-16.7h0Z"/>
    
    <!-- Artı işareti (green #35BFA3) -->
    <polygon fill="#35BFA3" points="24.6 10.7 24.6 13.6 21.4 13.6 21.4 16.7 18.5 16.7 18.5 13.6 15.5 13.6 15.5 10.7 18.5 10.7 18.5 7.6 21.4 7.6 21.4 10.7 24.6 10.7"/>
  </g>
</svg>


